<svg width="15" height="16" viewBox="0 0 15 16" fill="none" xmlns="http://www.w3.org/2000/svg">
<path d="M14.7768 3.29122C14.2549 3.53789 13.6943 3.70456 13.1049 3.77989C13.7131 3.39175 14.168 2.78087 14.3849 2.06122C13.8136 2.42321 13.1883 2.67802 12.5362 2.81456C12.0977 2.31513 11.5169 1.98411 10.8839 1.87287C10.2509 1.76164 9.60126 1.87642 9.03572 2.19939C8.47018 2.52236 8.02043 3.03546 7.75629 3.65902C7.49215 4.28259 7.42841 4.98172 7.57495 5.64789C6.41725 5.58589 5.28471 5.26492 4.25084 4.70583C3.21696 4.14673 2.30485 3.362 1.5737 2.40256C1.3237 2.86256 1.17995 3.39589 1.17995 3.96389C1.17967 4.47522 1.29772 4.97872 1.52362 5.42971C1.74952 5.8807 2.0763 6.26525 2.47495 6.54922C2.01262 6.53353 1.56049 6.40028 1.1562 6.16055V6.20055C1.15615 6.91772 1.38872 7.61281 1.81444 8.16789C2.24015 8.72296 2.8328 9.10384 3.49182 9.24589C3.06294 9.3697 2.61328 9.38794 2.17682 9.29922C2.36276 9.9163 2.72494 10.4559 3.21268 10.8425C3.70041 11.2291 4.28927 11.4433 4.89682 11.4552C3.86547 12.3188 2.59175 12.7873 1.28057 12.7852C1.04831 12.7853 0.816244 12.7708 0.585571 12.7419C1.91649 13.6547 3.46578 14.1391 5.04807 14.1372C10.4043 14.1372 13.3324 9.40522 13.3324 5.30122C13.3324 5.16789 13.3293 5.03322 13.3237 4.89989C13.8933 4.46054 14.3849 3.91649 14.7756 3.29322L14.7768 3.29122Z" fill="#F8F8F8"/>
</svg>
