<svg id="ant-design:barcode-outlined" xmlns="http://www.w3.org/2000/svg" width="24" height="24" viewBox="0 0 24 24">
  <rect id="ant-design:barcode-outlined-2" data-name="ant-design:barcode-outlined" width="24" height="24" fill="none"/>
  <path id="Vector" d="M1.313,0H.188A.188.188,0,0,0,0,.188V16.313a.188.188,0,0,0,.188.188H1.313a.188.188,0,0,0,.188-.187V.188A.188.188,0,0,0,1.313,0ZM20.836,0H19.711a.188.188,0,0,0-.187.188V16.313a.188.188,0,0,0,.188.188h1.125a.188.188,0,0,0,.188-.187V.188A.188.188,0,0,0,20.836,0ZM3.188,13.5H5.813A.188.188,0,0,0,6,13.313V.188A.188.188,0,0,0,5.813,0H3.188A.188.188,0,0,0,3,.188V13.313A.188.188,0,0,0,3.188,13.5Zm7.523,0h1.125a.188.188,0,0,0,.188-.187V.188A.188.188,0,0,0,11.836,0H10.711a.188.188,0,0,0-.187.188V13.313A.188.188,0,0,0,10.711,13.5Zm2.953,0h4.172a.188.188,0,0,0,.188-.187V.188A.188.188,0,0,0,17.836,0H13.664a.188.188,0,0,0-.187.188V13.313A.188.188,0,0,0,13.664,13.5Zm-5.977,0H8.813A.188.188,0,0,0,9,13.313V.188A.188.188,0,0,0,8.813,0H7.688A.188.188,0,0,0,7.5.188V13.313A.188.188,0,0,0,7.688,13.5ZM5.836,15H3.211a.188.188,0,0,0-.187.188v1.125a.188.188,0,0,0,.188.188H5.836a.188.188,0,0,0,.188-.187V15.188A.188.188,0,0,0,5.836,15Zm6.023,0H10.734a.188.188,0,0,0-.187.188v1.125a.188.188,0,0,0,.188.188h1.125a.188.188,0,0,0,.188-.187V15.188A.188.188,0,0,0,11.859,15Zm6,0H13.688a.188.188,0,0,0-.187.188v1.125a.188.188,0,0,0,.188.188h4.172a.188.188,0,0,0,.188-.187V15.188A.188.188,0,0,0,17.859,15ZM8.836,15H7.711a.188.188,0,0,0-.187.188v1.125a.188.188,0,0,0,.188.188H8.836a.188.188,0,0,0,.188-.187V15.188A.188.188,0,0,0,8.836,15Z" transform="translate(1.5 3.75)" fill="#fff"/>
</svg>
