<svg id="ic:baseline-pix" xmlns="http://www.w3.org/2000/svg" width="24" height="24" viewBox="0 0 24 24">
  <rect id="ic:baseline-pix-2" data-name="ic:baseline-pix" width="24" height="24" fill="none"/>
  <path id="Vector" d="M9.29,14.517l-3.01-3.01a.435.435,0,0,0-.62,0l-3.02,3.02a3.128,3.128,0,0,1-2.64.89l3.71,3.7a3,3,0,0,0,4.24,0l3.72-3.71a3.065,3.065,0,0,1-2.38-.89ZM2.64,5.467l3.02,3.02a.435.435,0,0,0,.62,0L9.27,5.5a3.083,3.083,0,0,1,2.43-.91L7.98.877a3,3,0,0,0-4.24,0L.03,4.577a3.11,3.11,0,0,1,2.61.89Z" transform="translate(6.16 2.003)" fill="#fff"/>
  <path id="Vector-2" data-name="Vector" d="M19.107,2.28,16.857.02H15.6a2.019,2.019,0,0,0-1.45.61l-3,3a1.438,1.438,0,0,1-1.02.42,1.5,1.5,0,0,1-1.02-.42L6.087.6A2.051,2.051,0,0,0,4.637,0H3.167L.877,2.3a3,3,0,0,0,0,4.24l2.29,2.3h1.48a2.086,2.086,0,0,0,1.45-.6l3.02-3.02a1.449,1.449,0,0,1,2.04,0l3.01,3.01a2.051,2.051,0,0,0,1.45.6h1.26l2.25-2.26a3.042,3.042,0,0,0-.02-4.29Z" transform="translate(2.003 7.57)" fill="#fff"/>
</svg>
