<svg width="16" height="16" viewBox="0 0 16 16" fill="none" xmlns="http://www.w3.org/2000/svg">
<path d="M3.32207 4.79819C4.12767 4.79819 4.78074 4.14513 4.78074 3.33953C4.78074 2.53393 4.12767 1.88086 3.32207 1.88086C2.51647 1.88086 1.8634 2.53393 1.8634 3.33953C1.8634 4.14513 2.51647 4.79819 3.32207 4.79819Z" fill="#F8F8F8"/>
<path d="M6.15802 5.90312V13.9958H8.67069V9.99379C8.67069 8.93779 8.86935 7.91512 10.1787 7.91512C11.47 7.91512 11.486 9.12246 11.486 10.0605V13.9965H14V9.55846C14 7.37846 13.5307 5.70312 10.9827 5.70312C9.75936 5.70312 8.93935 6.37446 8.60402 7.00979H8.57002V5.90312H6.15802ZM2.06335 5.90312H4.58002V13.9958H2.06335V5.90312Z" fill="#F8F8F8"/>
</svg>
