<svg width="18" height="18" viewBox="0 0 18 18" fill="none" xmlns="http://www.w3.org/2000/svg">
<path d="M12.75 2.62504C12.75 2.52558 12.7105 2.4302 12.6402 2.35988C12.5698 2.28955 12.4745 2.25004 12.375 2.25004H10.5C9.55584 2.20301 8.63145 2.53158 7.92879 3.16397C7.22613 3.79637 6.80234 4.68116 6.75 5.62504V7.65004H4.875C4.77554 7.65004 4.68016 7.68955 4.60984 7.75988C4.53951 7.8302 4.5 7.92558 4.5 8.02504V9.97504C4.5 10.0745 4.53951 10.1699 4.60984 10.2402C4.68016 10.3105 4.77554 10.35 4.875 10.35H6.75V15.375C6.75 15.4745 6.78951 15.5699 6.85983 15.6402C6.93016 15.7105 7.02554 15.75 7.125 15.75H9.375C9.47446 15.75 9.56984 15.7105 9.64017 15.6402C9.71049 15.5699 9.75 15.4745 9.75 15.375V10.35H11.715C11.7984 10.3512 11.8798 10.3246 11.9464 10.2743C12.0129 10.2241 12.0608 10.1531 12.0825 10.0725L12.6225 8.12254C12.6374 8.06713 12.6394 8.00904 12.6284 7.95273C12.6173 7.89643 12.5935 7.84341 12.5587 7.79777C12.5239 7.75212 12.4791 7.71507 12.4278 7.68946C12.3764 7.66385 12.3199 7.65036 12.2625 7.65004H9.75V5.62504C9.76866 5.4394 9.85584 5.26737 9.99452 5.14256C10.1332 5.01775 10.3134 4.94911 10.5 4.95004H12.375C12.4745 4.95004 12.5698 4.91053 12.6402 4.8402C12.7105 4.76988 12.75 4.6745 12.75 4.57504V2.62504Z" fill="#F8F8F8"/>
</svg>
