<svg width="32" height="31" viewBox="0 0 32 31" fill="none" xmlns="http://www.w3.org/2000/svg">
<path d="M29.3333 7.99391C29.3333 7.29391 28.7387 6.72754 28.0067 6.72754H17.3267C16.9748 6.72754 16.6374 6.86096 16.3886 7.09845C16.1398 7.33594 16 7.65805 16 7.99391C16 8.32978 16.1398 8.65188 16.3886 8.88937C16.6374 9.12687 16.9748 9.26029 17.3267 9.26029H28.0067C28.3585 9.26029 28.696 9.12687 28.9448 8.88937C29.1936 8.65188 29.3333 8.32978 29.3333 7.99391Z" fill="#2A70E2"/>
<path d="M29.3334 15.6367C29.3334 14.9367 28.7388 14.3704 28.0068 14.3704H3.99344C3.64158 14.3704 3.30414 14.5038 3.05534 14.7413C2.80655 14.9788 2.66677 15.3009 2.66677 15.6367C2.66677 15.9726 2.80655 16.2947 3.05534 16.5322C3.30414 16.7697 3.64158 16.9031 3.99344 16.9031H28.0068C28.3586 16.9031 28.6961 16.7697 28.9449 16.5322C29.1937 16.2947 29.3334 15.9726 29.3334 15.6367Z" fill="#2A70E2"/>
<path d="M28.0068 22.0129C28.3586 22.0129 28.6961 22.1464 28.9449 22.3839C29.1937 22.6213 29.3334 22.9434 29.3334 23.2793C29.3334 23.6152 29.1937 23.9373 28.9449 24.1748C28.6961 24.4123 28.3586 24.5457 28.0068 24.5457H11.9934C11.6416 24.5457 11.3041 24.4123 11.0553 24.1748C10.8065 23.9373 10.6668 23.6152 10.6668 23.2793C10.6668 22.9434 10.8065 22.6213 11.0553 22.3839C11.3041 22.1464 11.6416 22.0129 11.9934 22.0129H28.0068Z" fill="#2A70E2"/>
</svg>
