<?xml version="1.0" encoding="UTF-8" standalone="no"?>
<svg
   width="48"
   height="48"
   viewBox="0 0 48 48"
   fill="none"
   version="1.1"
   id="svg18"
   sodipodi:docname="icon_habilitacao_solicitacao.svg"
   inkscape:version="1.1.1 (eb90963e84, 2021-10-02)"
   xmlns:inkscape="http://www.inkscape.org/namespaces/inkscape"
   xmlns:sodipodi="http://sodipodi.sourceforge.net/DTD/sodipodi-0.dtd"
   xmlns="http://www.w3.org/2000/svg"
   xmlns:svg="http://www.w3.org/2000/svg">
  <defs
     id="defs22" />
  <sodipodi:namedview
     id="namedview20"
     pagecolor="#ffffff"
     bordercolor="#666666"
     borderopacity="1.0"
     inkscape:pageshadow="2"
     inkscape:pageopacity="0.0"
     inkscape:pagecheckerboard="0"
     showgrid="false"
     width="48px"
     inkscape:zoom="2.2934783"
     inkscape:cx="44.909953"
     inkscape:cy="43.819905"
     inkscape:window-width="1137"
     inkscape:window-height="1016"
     inkscape:window-x="783"
     inkscape:window-y="27"
     inkscape:window-maximized="0"
     inkscape:current-layer="svg18" />
  <g
     id="g967"
     transform="translate(0.92404,0.9231)">
    <path
       d="M 41.5732,5.26479 H 34.7223 V 4.57971 c 0,-1.88877 -1.5366,-3.42541 -3.4254,-3.42541 -1.1242,0 -2.1155,0.55217 -2.7403,1.3914 -0.6248,-0.83923 -1.6161,-1.3914 -2.7403,-1.3914 -1.1242,0 -2.1156,0.55217 -2.7404,1.3914 -0.6247,-0.83923 -1.6161,-1.3914 -2.7403,-1.3914 -1.1242,0 -2.1155,0.55217 -2.7403,1.3914 -0.6248,-0.83923 -1.6161,-1.3914 -2.7403,-1.3914 -1.8888,0 -3.4254,1.53664 -3.4254,3.42541 V 5.26479 H 4.57873 c -1.88877,0 -3.42541,1.53664 -3.42541,3.42541 v 21.9226 c 0,1.8888 1.53664,3.4254 3.42541,3.4254 h 8.22097 v 10.9613 h 1.3702 V 34.0382 h 13.7016 v -0.0349 c 0.2254,0.0226 0.4535,0.0349 0.6851,0.0349 h 1.3702 v -1.3701 h -1.3702 c -2.7897,0 -5.0997,-2.0964 -5.4382,-4.7956 h 8.8636 c 1.1331,0 2.0553,0.9221 2.0553,2.0552 v 15.0718 h 1.3701 V 34.0382 h 6.1658 c 1.8887,0 3.4254,-1.5366 3.4254,-3.4254 V 8.6902 c 0,-1.88877 -1.5367,-3.42541 -3.4254,-3.42541 z M 31.2969,2.52446 c 1.1332,0 2.0553,0.92212 2.0553,2.05525 v 2.74032 c 0,1.13313 -0.9221,2.05525 -2.0553,2.05525 -1.1331,0 -2.0552,-0.92212 -2.0552,-2.05525 V 4.57971 c 0,-1.13313 0.9221,-2.05525 2.0552,-2.05525 z m -5.4806,0 c 1.1331,0 2.0552,0.92212 2.0552,2.05525 v 2.74032 c 0,1.13313 -0.9221,2.05525 -2.0552,2.05525 -1.1332,0 -2.0553,-0.92212 -2.0553,-2.05525 V 4.57971 c 0,-1.13313 0.9221,-2.05525 2.0553,-2.05525 z m -5.4807,0 c 1.1331,0 2.0553,0.92212 2.0553,2.05525 v 2.74032 c 0,1.13313 -0.9222,2.05525 -2.0553,2.05525 -1.1331,0 -2.0552,-0.92212 -2.0552,-2.05525 V 4.57971 c 0,-1.13313 0.9221,-2.05525 2.0552,-2.05525 z m -7.5359,2.05525 c 0,-1.13313 0.9221,-2.05525 2.0553,-2.05525 1.1331,0 2.0552,0.92212 2.0552,2.05525 v 2.74032 c 0,1.13313 -0.9221,2.05525 -2.0552,2.05525 -1.1332,0 -2.0553,-0.92212 -2.0553,-2.05525 z M 43.6284,30.6128 c 0,1.1331 -0.9221,2.0553 -2.0552,2.0553 h -6.1658 v -2.7404 c 0,-1.8887 -1.5366,-3.4254 -3.4254,-3.4254 h -9.5911 c -0.3782,0 -0.6851,0.3063 -0.6851,0.6851 0,2.2423 1.0879,4.2304 2.7581,5.4807 H 4.57873 c -1.13313,0 -2.05525,-0.9222 -2.05525,-2.0553 V 8.6902 c 0,-1.13313 0.92212,-2.05525 2.05525,-2.05525 h 6.85087 v 0.68508 c 0,1.88878 1.5366,3.42537 3.4254,3.42537 1.1242,0 2.1155,-0.5521 2.7403,-1.39136 0.6248,0.83926 1.6161,1.39136 2.7403,1.39136 1.1242,0 2.1156,-0.5521 2.7403,-1.39136 0.6248,0.83926 1.6162,1.39136 2.7404,1.39136 1.1242,0 2.1155,-0.5521 2.7403,-1.39136 0.6248,0.83926 1.6161,1.39136 2.7403,1.39136 1.8888,0 3.4254,-1.53659 3.4254,-3.42537 V 6.63495 h 6.8509 c 1.1331,0 2.0552,0.92212 2.0552,2.05525 z"
       fill="#54ca60"
       id="path2" />
    <path
       d="M 17.5953,12.8007 H 5.26381 c -0.37816,0 -0.68508,0.3062 -0.68508,0.6851 v 13.0165 c 0,0.3789 0.30692,0.6851 0.68508,0.6851 H 17.5953 c 0.3782,0 0.6851,-0.3062 0.6851,-0.6851 V 13.4858 c 0,-0.3789 -0.3069,-0.6851 -0.6851,-0.6851 z m -0.6851,1.3702 v 9.2006 c -0.6474,-1.3976 -1.7168,-2.5259 -3.0534,-3.1596 0.1932,-0.3754 0.3131,-0.7947 0.3131,-1.2455 v -0.6851 c 0,-1.5112 -1.2291,-2.7403 -2.7403,-2.7403 -1.51134,0 -2.74038,1.2291 -2.74038,2.7403 v 0.6851 c 0,0.4508 0.11989,0.8701 0.31309,1.2455 -1.3366,0.6337 -2.40601,1.7627 -3.05342,3.1596 v -9.2006 z m -4.1105,4.7955 c 0,0.409 -0.1836,0.7721 -0.4686,1.0235 -0.0061,0.0048 -0.0144,0.0083 -0.0205,0.0137 -0.1788,0.1514 -0.4769,0.333 -0.881,0.333 -0.4042,0 -0.7023,-0.1816 -0.8811,-0.333 -0.0061,-0.0054 -0.0137,-0.0082 -0.0205,-0.013 -0.285,-0.2521 -0.4686,-0.6152 -0.4686,-1.0242 v -0.6851 c 0,-0.7556 0.6145,-1.3701 1.3702,-1.3701 0.7556,0 1.3701,0.6145 1.3701,1.3701 z m -2.81841,2.317 c 0.19391,0.1219 0.40561,0.2137 0.62821,0.2843 0.0343,0.0109 0.0678,0.0226 0.1028,0.0322 0.1068,0.0288 0.2144,0.0514 0.3254,0.0678 0.0192,0.0027 0.0377,0.0034 0.0568,0.0055 0.111,0.0137 0.2206,0.0336 0.3351,0.0336 0.1144,0 0.224,-0.0199 0.335,-0.0336 0.0191,-0.0021 0.0376,-0.0028 0.0568,-0.0055 0.111,-0.0164 0.2192,-0.0384 0.3254,-0.0678 0.035,-0.0096 0.0685,-0.0213 0.1028,-0.0322 0.2226,-0.0706 0.4337,-0.1624 0.6275,-0.2843 1.7943,0.6474 3.0678,2.4231 3.2994,4.5338 H 6.68193 c 0.23156,-2.1107 1.50581,-3.8864 3.29936,-4.5338 z"
       fill="#54ca60"
       id="path4" />
    <path
       d="m 30.6118,13.4858 h -8.9661 c -0.3452,0 -0.625,0.2798 -0.625,0.625 v 0.1201 c 0,0.3452 0.2798,0.625 0.625,0.625 h 8.9661 z"
       fill="#54ca60"
       id="path6" />
    <path
       d="m 40.8881,14.1108 c 0,-0.3452 -0.2798,-0.625 -0.625,-0.625 h -9.6513 v 1.3701 h 9.6513 c 0.3452,0 0.625,-0.2798 0.625,-0.625 z"
       fill="#54ca60"
       id="path8" />
    <path
       d="m 40.8881,18.9664 c 0,-0.3783 -0.3067,-0.6851 -0.6851,-0.6851 H 21.7058 c -0.3784,0 -0.6851,0.3068 -0.6851,0.6851 0,0.3784 0.3067,0.6851 0.6851,0.6851 H 40.203 c 0.3784,0 0.6851,-0.3067 0.6851,-0.6851 z"
       fill="#54ca60"
       id="path10" />
    <path
       d="m 35.4074,23.762 c 0,-0.3784 -0.3067,-0.6851 -0.6851,-0.6851 H 21.7058 c -0.3784,0 -0.6851,0.3067 -0.6851,0.6851 0,0.3784 0.3067,0.6851 0.6851,0.6851 h 13.0165 c 0.3784,0 0.6851,-0.3067 0.6851,-0.6851 z"
       fill="#54ca60"
       id="path12" />
    <path
       d="m 40.8881,23.762 c 0,-0.3784 -0.3067,-0.6851 -0.6851,-0.6851 h -2.7403 c -0.3784,0 -0.6851,0.3067 -0.6851,0.6851 0,0.3784 0.3067,0.6851 0.6851,0.6851 h 2.7403 c 0.3784,0 0.6851,-0.3067 0.6851,-0.6851 z"
       fill="#54ca60"
       id="path14" />
    <path
       d="m 30.6118,13.4858 h -8.9661 c -0.3452,0 -0.625,0.2798 -0.625,0.625 v 0.1201 c 0,0.3452 0.2798,0.625 0.625,0.625 h 8.9661 m 0,-1.3701 v 1.3701 m 0,-1.3701 h 9.6513 c 0.3452,0 0.625,0.2798 0.625,0.625 v 0.1201 c 0,0.3452 -0.2798,0.625 -0.625,0.625 H 30.6118 M 41.5732,5.26479 H 34.7223 V 4.57971 c 0,-1.88877 -1.5366,-3.42541 -3.4254,-3.42541 -1.1242,0 -2.1155,0.55217 -2.7403,1.3914 -0.6248,-0.83923 -1.6161,-1.3914 -2.7403,-1.3914 -1.1242,0 -2.1156,0.55217 -2.7404,1.3914 -0.6247,-0.83923 -1.6161,-1.3914 -2.7403,-1.3914 -1.1242,0 -2.1155,0.55217 -2.7403,1.3914 -0.6248,-0.83923 -1.6161,-1.3914 -2.7403,-1.3914 -1.8888,0 -3.4254,1.53664 -3.4254,3.42541 V 5.26479 H 4.57873 c -1.88877,0 -3.42541,1.53664 -3.42541,3.42541 v 21.9226 c 0,1.8888 1.53664,3.4254 3.42541,3.4254 h 8.22097 v 10.9613 h 1.3702 V 34.0382 h 13.7016 v -0.0349 c 0.2254,0.0226 0.4535,0.0349 0.6851,0.0349 h 1.3702 v -1.3701 h -1.3702 c -2.7897,0 -5.0997,-2.0964 -5.4382,-4.7956 h 8.8636 c 1.1331,0 2.0553,0.9221 2.0553,2.0552 v 15.0718 h 1.3701 V 34.0382 h 6.1658 c 1.8887,0 3.4254,-1.5366 3.4254,-3.4254 V 8.6902 c 0,-1.88877 -1.5367,-3.42541 -3.4254,-3.42541 z M 31.2969,2.52446 c 1.1332,0 2.0553,0.92212 2.0553,2.05525 v 2.74033 c 0,1.13312 -0.9221,2.05524 -2.0553,2.05524 -1.1331,0 -2.0552,-0.92212 -2.0552,-2.05524 V 4.57971 c 0,-1.13313 0.9221,-2.05525 2.0552,-2.05525 z m -5.4806,0 c 1.1331,0 2.0552,0.92212 2.0552,2.05525 v 2.74033 c 0,1.13312 -0.9221,2.05524 -2.0552,2.05524 -1.1332,0 -2.0553,-0.92212 -2.0553,-2.05524 V 4.57971 c 0,-1.13313 0.9221,-2.05525 2.0553,-2.05525 z m -5.4807,0 c 1.1331,0 2.0553,0.92212 2.0553,2.05525 v 2.74033 c 0,1.13312 -0.9222,2.05524 -2.0553,2.05524 -1.1331,0 -2.0552,-0.92212 -2.0552,-2.05524 V 4.57971 c 0,-1.13313 0.9221,-2.05525 2.0552,-2.05525 z m -7.5359,2.05525 c 0,-1.13313 0.9221,-2.05525 2.0553,-2.05525 1.1331,0 2.0552,0.92212 2.0552,2.05525 v 2.74033 c 0,1.13312 -0.9221,2.05524 -2.0552,2.05524 -1.1332,0 -2.0553,-0.92212 -2.0553,-2.05524 z M 43.6284,30.6128 c 0,1.1331 -0.9221,2.0553 -2.0552,2.0553 h -6.1658 v -2.7404 c 0,-1.8887 -1.5366,-3.4254 -3.4254,-3.4254 h -9.5911 c -0.3782,0 -0.6851,0.3063 -0.6851,0.6851 0,2.2423 1.0879,4.2304 2.7581,5.4807 H 4.57873 c -1.13313,0 -2.05525,-0.9222 -2.05525,-2.0553 V 8.6902 c 0,-1.13313 0.92212,-2.05525 2.05525,-2.05525 h 6.85087 v 0.68509 c 0,1.88877 1.5366,3.42536 3.4254,3.42536 1.1242,0 2.1155,-0.5521 2.7403,-1.39136 0.6248,0.83926 1.6161,1.39136 2.7403,1.39136 1.1242,0 2.1156,-0.5521 2.7403,-1.39136 0.6248,0.83926 1.6162,1.39136 2.7404,1.39136 1.1242,0 2.1155,-0.5521 2.7403,-1.39136 0.6248,0.83926 1.6161,1.39136 2.7403,1.39136 1.8888,0 3.4254,-1.53659 3.4254,-3.42536 V 6.63495 h 6.8509 c 1.1331,0 2.0552,0.92212 2.0552,2.05525 z M 17.5953,12.8007 H 5.26381 c -0.37816,0 -0.68508,0.3062 -0.68508,0.6851 v 13.0165 c 0,0.3789 0.30692,0.6851 0.68508,0.6851 H 17.5953 c 0.3782,0 0.6851,-0.3062 0.6851,-0.6851 V 13.4858 c 0,-0.3789 -0.3069,-0.6851 -0.6851,-0.6851 z m -0.6851,1.3702 v 9.2006 c -0.6474,-1.3976 -1.7168,-2.5259 -3.0534,-3.1596 0.1932,-0.3754 0.3131,-0.7947 0.3131,-1.2455 v -0.6851 c 0,-1.5112 -1.2291,-2.7403 -2.7403,-2.7403 -1.51134,0 -2.74038,1.2291 -2.74038,2.7403 v 0.6851 c 0,0.4508 0.11989,0.8701 0.31308,1.2455 -1.33659,0.6337 -2.406,1.7627 -3.05341,3.1596 v -9.2006 z m -4.1105,4.7955 c 0,0.409 -0.1836,0.7721 -0.4686,1.0235 -0.0061,0.0048 -0.0144,0.0083 -0.0205,0.0137 -0.1788,0.1514 -0.4769,0.333 -0.881,0.333 -0.4042,0 -0.7023,-0.1816 -0.8811,-0.333 -0.0061,-0.0054 -0.0137,-0.0082 -0.0205,-0.013 -0.285,-0.2521 -0.4686,-0.6152 -0.4686,-1.0242 v -0.6851 c 0,-0.7556 0.6145,-1.3701 1.3702,-1.3701 0.7556,0 1.3701,0.6145 1.3701,1.3701 z m -2.81841,2.317 c 0.19391,0.1219 0.40561,0.2137 0.62821,0.2843 0.0343,0.0109 0.0678,0.0226 0.1028,0.0322 0.1068,0.0288 0.2144,0.0514 0.3254,0.0678 0.0192,0.0027 0.0377,0.0034 0.0568,0.0055 0.111,0.0137 0.2206,0.0336 0.3351,0.0336 0.1144,0 0.224,-0.0199 0.335,-0.0336 0.0191,-0.0021 0.0376,-0.0028 0.0568,-0.0055 0.111,-0.0164 0.2192,-0.0384 0.3254,-0.0678 0.035,-0.0096 0.0685,-0.0213 0.1028,-0.0322 0.2226,-0.0706 0.4337,-0.1624 0.6275,-0.2843 1.7943,0.6474 3.0678,2.4231 3.2994,4.5338 H 6.68193 c 0.23156,-2.1107 1.50581,-3.8864 3.29936,-4.5338 z m 27.48141,3.1637 h 2.7403 c 0.3784,0 0.6851,-0.3067 0.6851,-0.6851 v 0 c 0,-0.3784 -0.3067,-0.6851 -0.6851,-0.6851 h -2.7403 c -0.3784,0 -0.6851,0.3067 -0.6851,0.6851 v 0 c 0,0.3784 0.3067,0.6851 0.6851,0.6851 z m -15.7569,0 h 13.0165 c 0.3784,0 0.6851,-0.3067 0.6851,-0.6851 v 0 c 0,-0.3784 -0.3067,-0.6851 -0.6851,-0.6851 H 21.7058 c -0.3784,0 -0.6851,0.3067 -0.6851,0.6851 v 0 c 0,0.3784 0.3067,0.6851 0.6851,0.6851 z m 0,-4.7956 H 40.203 c 0.3784,0 0.6851,-0.3067 0.6851,-0.6851 v 0 c 0,-0.3783 -0.3067,-0.6851 -0.6851,-0.6851 H 21.7058 c -0.3784,0 -0.6851,0.3068 -0.6851,0.6851 v 0 c 0,0.3784 0.3067,0.6851 0.6851,0.6851 z"
       stroke="#54ca60"
       stroke-width="0.4"
       id="path16" />
  </g>
</svg>
