<?xml version="1.0" encoding="UTF-8" standalone="no"?>
<!-- Created with Inkscape (http://www.inkscape.org/) -->

<svg
   width="48"
   height="48"
   viewBox="0 0 12.7 12.7"
   version="1.1"
   id="svg5"
   xmlns="http://www.w3.org/2000/svg"
   xmlns:svg="http://www.w3.org/2000/svg">
  <defs
     id="defs2" />
  <g
     id="layer1">
    <g
       id="g832"
       transform="matrix(0.26458333,0,0,0.26458333,1.0143673,1.2263328)">
      <path
         d="m 15.9245,0.942383 c -4.8794,0 -8.83661,3.957257 -8.83661,8.836587 0,4.87933 3.95721,8.83663 8.83661,8.83663 4.8793,0 8.8366,-3.9573 8.8366,-8.83663 0,-4.87933 -3.9573,-8.836587 -8.8366,-8.836587 z m 0,15.368017 c -3.6115,0 -6.53141,-2.92 -6.53141,-6.53143 0,-3.61148 2.91991,-6.53139 6.53141,-6.53139 3.6114,0 6.5314,2.91991 6.5314,6.53139 0,3.61143 -2.92,6.53143 -6.5314,6.53143 z"
         fill="#f1a91d"
         id="path2" />
      <path
         d="m 15.9243,21.6895 c -6.30087,0 -12.1407,3.4193 -15.252711,8.875 -0.307359,0.5378 -0.11526,1.2678 0.422621,1.5752 0.1921,0.1152 0.3842,0.1537 0.5763,0.1537 0.3842,0 0.80682,-0.1921 0.99892,-0.5763 2.72781,-4.7641 7.79927,-7.7225 13.25487,-7.7225 1.8057,0 3.6115,0.3074 5.302,0.9605 0.6147,0.2306 1.2678,-0.0768 1.4983,-0.6915 0.2305,-0.6147 -0.0768,-1.2679 -0.6915,-1.4984 -1.9594,-0.6915 -3.9957,-1.0757 -6.1088,-1.0757 z"
         fill="#f1a91d"
         id="path4" />
      <path
         d="m 31.4077,21.344 c -0.3458,-0.5763 -0.9605,-0.9221 -1.6521,-0.9221 -0.6915,0 -1.3063,0.3458 -1.652,0.9221 l -8.1451,13.5622 c -0.3457,0.6147 -0.3842,1.3063 -0.0384,1.921 0.3458,0.6147 0.9605,0.9605 1.6905,0.9605 h 16.2516 c 0.6916,0 1.3447,-0.3458 1.6905,-0.9605 0.3458,-0.6147 0.3458,-1.3447 -0.0384,-1.921 z m -1.6521,14.1769 c -0.6531,0 -1.1526,-0.4995 -1.1526,-1.1526 0,-0.6531 0.4995,-1.1526 1.1526,-1.1526 0.6532,0 1.1526,0.4995 1.1526,1.1526 0,0.6531 -0.4994,1.1526 -1.1526,1.1526 z m 1.1526,-5.3788 c 0,0.6532 -0.4994,1.1526 -1.1526,1.1526 -0.6531,0 -1.1526,-0.4994 -1.1526,-1.1526 v -3.842 c 0,-0.6531 0.4995,-1.1526 1.1526,-1.1526 0.6532,0 1.1526,0.4995 1.1526,1.1526 z"
         fill="#f1a91d"
         id="path6" />
    </g>
  </g>
</svg>
