<?xml version="1.0" encoding="UTF-8" standalone="no"?>
<!-- Created with Inkscape (http://www.inkscape.org/) -->

<svg
   width="48"
   height="48"
   viewBox="0 0 12.7 12.7"
   version="1.1"
   id="svg5"
   xmlns="http://www.w3.org/2000/svg"
   xmlns:svg="http://www.w3.org/2000/svg">
  <defs
     id="defs2" />
  <g
     id="layer1">
    <path
       d="m 6.7432356,9.2010239 c 0,0.216297 -0.176953,0.393251 -0.393224,0.393251 -0.216297,0 -0.39325,-0.176954 -0.39325,-0.393251 0,-0.21627 0.176953,-0.39325 0.39325,-0.39325 0.216271,0 0.393224,0.17698 0.393224,0.39325 z m -0.393224,-0.983112 c 0.157295,0 0.294931,-0.137636 0.294931,-0.294931 v -3.342587 c 0,-0.157295 -0.137636,-0.294931 -0.294931,-0.294931 -0.157321,0 -0.294957,0.137636 -0.294957,0.294931 v 3.342587 c 0,0.157295 0.137636,0.294931 0.294957,0.294931 z M 11.068934,3.7939199 V 11.85543 c 0,0.117978 -0.05898,0.216297 -0.176953,0.275273 -0.03932,0.01966 -0.07866,0.01966 -0.117978,0.01966 -0.07866,0 -0.137636,-0.01966 -0.196612,-0.07863 l -0.6881804,-0.609547 -0.688181,0.609547 c -0.117978,0.09829 -0.275273,0.09829 -0.39325,0 l -0.688182,-0.609547 -0.688181,0.609547 c -0.117977,0.09829 -0.275272,0.09829 -0.39325,0 l -0.688155,-0.609547 -0.688181,0.609547 c -0.117978,0.09829 -0.275273,0.09829 -0.39325,0 l -0.688181,-0.609547 -0.688179,0.609547 c -0.117975,0.09829 -0.275273,0.09829 -0.393245,0 l -0.688179,-0.609547 -0.688178,0.609547 c -0.07865,0.07863 -0.216286,0.09829 -0.314598,0.03932 -0.117972,-0.03932 -0.176958,-0.137636 -0.176958,-0.255614 V 0.8445839 c 0,-0.157297 0.137636,-0.294934 0.294933,-0.294934 h 5.898671 c 0.01966,0 0.03932,0 0.05898,0 0.01969,0 0.01969,0 0.03934,0.01966 h 0.01966 c 0.01966,0 0.01966,0.01966 0.03932,0.01966 0,0 0,0 0.01966,0 0.01966,0.01966 0.03934,0.01966 0.03934,0.03933 l 1.474655,1.474667 c 0.8454764,0.845476 1.2190674,1.219052 1.3960214,1.41569 0.07866,0.03932 0.137636,0.117978 0.157294,0.216271 0,0.01966 0,0.03934 0,0.059 z M 8.1195976,1.5524149 v 1.946574 H 10.066163 C 9.5156186,2.9484329 8.6701426,2.1029569 8.1195976,1.5524149 Z M 10.479072,11.206566 V 4.0888509 H 7.8246666 c -0.157294,0 -0.294931,-0.137636 -0.294931,-0.294931 V 1.1395089 H 2.2209296 V 11.206566 l 0.393245,-0.353907 c 0.05899,-0.059 0.117972,-0.07866 0.196622,-0.07866 0.07865,0 0.137637,0.01966 0.196623,0.07866 l 0.688178,0.609521 0.68819,-0.609521 c 0.117951,-0.09832 0.275272,-0.09832 0.393223,0 l 0.688182,0.609521 0.688181,-0.609521 c 0.117978,-0.09832 0.275272,-0.09832 0.39325,0 l 0.688181,0.609521 0.688182,-0.609521 c 0.117977,-0.09832 0.275272,-0.09832 0.39325,0 l 0.688155,0.609521 0.688181,-0.609521 c 0.117978,-0.09832 0.275272,-0.09832 0.3932494,0 z"
       fill="#f1831d"
       stroke="#f1831d"
       stroke-width="0.105833"
       id="path2" />
  </g>
</svg>
