<svg width="38" height="38" viewBox="0 0 38 38" fill="none" xmlns="http://www.w3.org/2000/svg">
<path d="M29.6241 3.62923C29.3268 3.33234 28.9237 3.16572 28.5036 3.16602C28.0834 3.16631 27.6806 3.33351 27.3837 3.63081C27.0868 3.92812 26.9202 4.33119 26.9205 4.75135C26.9208 5.17151 27.088 5.57434 27.3853 5.87123L29.4309 7.91215H20.5769C19.3172 7.91215 18.109 8.41259 17.2182 9.30339C16.3274 10.1942 15.8269 11.4024 15.8269 12.6621V26.9121C15.8269 27.3321 15.6601 27.7348 15.3632 28.0317C15.0663 28.3287 14.6635 28.4955 14.2436 28.4955H12.3943C12.0192 27.4392 11.2827 26.5495 10.3151 25.9837C9.3474 25.4179 8.21088 25.2124 7.10637 25.4035C6.00186 25.5947 5.00049 26.1702 4.27926 27.0282C3.55802 27.8863 3.16336 28.9717 3.16504 30.0927C3.16673 31.2136 3.56464 32.2978 4.28844 33.1537C5.01225 34.0096 6.01534 34.5821 7.12042 34.7699C8.2255 34.9578 9.3614 34.7489 10.3273 34.1802C11.2933 33.6115 12.0271 32.7196 12.399 31.6621H14.2436C15.5034 31.6621 16.7116 31.1617 17.6024 30.2709C18.4932 29.3801 18.9936 28.1719 18.9936 26.9121V12.6621C18.9936 12.2422 19.1604 11.8395 19.4573 11.5426C19.7543 11.2456 20.157 11.0788 20.5769 11.0788H29.4262L27.3758 13.1213C27.2242 13.267 27.1031 13.4413 27.0196 13.6342C26.9362 13.8272 26.8919 14.0348 26.8895 14.245C26.8871 14.4552 26.9266 14.6638 27.0057 14.8585C27.0847 15.0533 27.2018 15.2304 27.35 15.3795C27.4982 15.5285 27.6747 15.6466 27.869 15.7267C28.0633 15.8069 28.2717 15.8476 28.4819 15.8463C28.6921 15.8451 28.8999 15.8021 29.0933 15.7197C29.2867 15.6373 29.4618 15.5172 29.6083 15.3665L34.3741 10.6181C34.5215 10.471 34.6385 10.2963 34.7184 10.1039C34.7982 9.91154 34.8393 9.70533 34.8393 9.49706C34.8393 9.2888 34.7982 9.08258 34.7184 8.89022C34.6385 8.69786 34.5215 8.52314 34.3741 8.37606L29.6241 3.62923Z" fill="#F1C21D"/>
</svg>
