<?xml version="1.0" encoding="UTF-8" standalone="no"?>
<svg
   width="29"
   height="21"
   viewBox="0 0 29 21"
   fill="none"
   version="1.1"
   id="svg4"
   xmlns="http://www.w3.org/2000/svg"
   xmlns:svg="http://www.w3.org/2000/svg">
  <defs
     id="defs8" />
  <path
     d="M25.335 5.76957C25.1461 5.51776 24.8498 5.36957 24.535 5.36957H21.1462V1.18457C21.1462 0.632286 20.6985 0.18457 20.1462 0.18457H2.99875C1.57287 0.18457 0.40625 1.3512 0.40625 2.77707V16.0358C0.40625 16.5881 0.853965 17.0358 1.40625 17.0358H2.99875C2.99875 19.1876 4.73572 20.9246 6.8875 20.9246C9.03927 20.9246 10.7762 19.1876 10.7762 17.0358H18.5537C18.5537 19.1876 20.2907 20.9246 22.4425 20.9246C24.5943 20.9246 26.3312 19.1876 26.3312 17.0358H27.9237C28.476 17.0358 28.9237 16.5881 28.9237 16.0358V11.2212C28.9237 10.7885 28.7834 10.3674 28.5238 10.0212L25.335 5.76957ZM6.8875 18.9802C5.81161 18.9802 4.94312 18.1117 4.94312 17.0358C4.94312 15.9599 5.81161 15.0914 6.8875 15.0914C7.96339 15.0914 8.83187 15.9599 8.83187 17.0358C8.83187 18.1117 7.96339 18.9802 6.8875 18.9802ZM24.3869 7.31394L26.9275 10.5546H21.1462V7.31394H24.3869ZM22.4425 18.9802C21.3666 18.9802 20.4981 18.1117 20.4981 17.0358C20.4981 15.9599 21.3666 15.0914 22.4425 15.0914C23.5184 15.0914 24.3869 15.9599 24.3869 17.0358C24.3869 18.1117 23.5184 18.9802 22.4425 18.9802Z"
     fill="#2A70E2"
     id="path2" />
</svg>
