<?xml version="1.0" encoding="UTF-8" standalone="no"?>
<svg
   width="22"
   height="26"
   viewBox="0 0 22 26"
   fill="none"
   version="1.1"
   id="svg4"
   xmlns="http://www.w3.org/2000/svg"
   xmlns:svg="http://www.w3.org/2000/svg">
  <defs
     id="defs8" />
  <path
     d="M10.8854 0.592773C5.70038 0.592773 0.515381 1.2409 0.515381 5.77777V18.0921C0.515381 19.3236 1.00796 20.4384 1.81163 21.255V23.9253C1.81163 24.6382 2.39494 25.2215 3.10788 25.2215H4.40413C5.11707 25.2215 5.70038 24.6382 5.70038 23.9253V22.629H16.0704V23.9253C16.0704 24.6382 16.6537 25.2215 17.3666 25.2215H18.6629C19.3758 25.2215 19.9591 24.6382 19.9591 23.9253V21.255C20.7628 20.4384 21.2554 19.3236 21.2554 18.0921V5.77777C21.2554 1.2409 16.6148 0.592773 10.8854 0.592773ZM6.34851 18.7403C5.27262 18.7403 4.40413 17.8718 4.40413 16.7959C4.40413 15.72 5.27262 14.8515 6.34851 14.8515C7.42439 14.8515 8.29288 15.72 8.29288 16.7959C8.29288 17.8718 7.42439 18.7403 6.34851 18.7403ZM15.4223 18.7403C14.3464 18.7403 13.4779 17.8718 13.4779 16.7959C13.4779 15.72 14.3464 14.8515 15.4223 14.8515C16.4981 14.8515 17.3666 15.72 17.3666 16.7959C17.3666 17.8718 16.4981 18.7403 15.4223 18.7403ZM18.6629 10.9628H3.10788V7.07402H18.6629V10.9628Z"
     fill="#2A70E2"
     id="path2" />
</svg>
