<?xml version="1.0" encoding="UTF-8" standalone="no"?>
<!-- Created with Inkscape (http://www.inkscape.org/) -->

<svg
   width="48"
   height="48"
   viewBox="0 0 12.7 12.7"
   version="1.1"
   id="svg5"
   xmlns="http://www.w3.org/2000/svg"
   xmlns:svg="http://www.w3.org/2000/svg">
  <defs
     id="defs2" />
  <g
     id="layer1">
    <g
       id="g835"
       transform="matrix(0.26458333,0,0,0.26458333,2.0962845,1.1973278)">
      <path
         d="M 24.7631,29.6938 H 6.02845 C 4.72715,29.7064 3.46734,29.2364 2.49227,28.3746 1.51719,27.5127 0.896013,26.3202 0.748671,25.0272 0.668969,24.059 0.866969,23.0881 1.31945,22.2283 1.77194,21.3686 2.46015,20.6557 3.3034,20.1732 v -7.5109 c 0,-3.16192 1.25607,-6.19435 3.4919,-8.43017 2.23582,-2.23582 5.2682,-3.491896 8.4302,-3.491896 h 1.7031 c 3.162,0 6.1944,1.256076 8.4302,3.491896 2.2358,2.23582 3.4919,5.26825 3.4919,8.43017 v 7.5109 c 0.8433,0.4825 1.5315,1.1954 1.984,2.0551 0.4524,0.8598 0.6504,1.8307 0.5707,2.7989 -0.2043,2.2482 -2.0437,4.6666 -6.6423,4.6666 z M 15.2255,4.14654 c -2.2585,0 -4.4246,0.8972 -6.02158,2.49421 C 7.6069,8.23777 6.70971,10.4038 6.70971,12.6623 v 8.635 c 0.01224,0.3868 -0.1076,0.7662 -0.33978,1.0758 -0.23218,0.3095 -0.56286,0.5308 -0.93759,0.6274 -0.38065,0.0977 -0.7158,0.3241 -0.94861,0.6407 -0.23281,0.3166 -0.34896,0.704 -0.32875,1.0965 0.07776,0.4448 0.31359,0.8466 0.66409,1.1314 0.3505,0.2848 0.79208,0.4334 1.24344,0.4184 H 24.7972 c 0.7153,0 3.0997,-0.1192 3.236,-1.5498 0.0483,-0.4166 -0.0587,-0.8365 -0.3007,-1.179 -0.242,-0.3426 -0.6019,-0.5838 -1.0107,-0.6775 -0.3748,-0.0965 -0.7054,-0.3178 -0.9376,-0.6274 -0.2322,-0.3095 -0.352,-0.6889 -0.3398,-1.0757 v -8.5158 c 0,-2.2585 -0.8972,-4.42453 -2.4942,-6.02155 -1.597,-1.59701 -3.763,-2.49421 -6.0216,-2.49421 z"
         fill="#f1691d"
         id="path2" />
      <path
         d="m 16.0763,38.2091 c -3.8151,0 -6.81263,-2.2482 -6.81263,-5.1095 H 12.67 c 0,0.6983 1.3284,1.7032 3.4063,1.7032 2.0778,0 3.4063,-1.0049 3.4063,-1.7032 h 3.4063 c 0,2.8613 -2.9975,5.1095 -6.8126,5.1095 z"
         fill="#f1691d"
         id="path4" />
      <path
         d="m 16.0772,16.0695 c -0.4517,0 -0.8849,-0.1795 -1.2043,-0.4989 C 14.5535,15.2512 14.374,14.818 14.374,14.3663 V 10.96 c 0,-0.4517 0.1795,-0.8849 0.4989,-1.20432 0.3194,-0.3194 0.7526,-0.49884 1.2043,-0.49884 0.4517,0 0.8849,0.17944 1.2043,0.49884 0.3194,0.31942 0.4988,0.75262 0.4988,1.20432 v 3.4063 c 0,0.4517 -0.1794,0.8849 -0.4988,1.2043 -0.3194,0.3194 -0.7526,0.4989 -1.2043,0.4989 z"
         fill="#f1691d"
         id="path6" />
      <path
         d="m 16.0772,21.1778 c 0.9406,0 1.7031,-0.7625 1.7031,-1.7032 0,-0.9406 -0.7625,-1.7031 -1.7031,-1.7031 -0.9406,0 -1.7032,0.7625 -1.7032,1.7031 0,0.9407 0.7626,1.7032 1.7032,1.7032 z"
         fill="#f1691d"
         id="path8" />
    </g>
  </g>
</svg>
