<svg width="38" height="38" viewBox="0 0 38 38" fill="none" xmlns="http://www.w3.org/2000/svg">
<path d="M12.4487 0.638672C7.96992 0.638672 4.31601 4.29258 4.31601 8.77138C4.31601 11.5714 5.74504 14.0576 7.91067 15.525C3.76647 17.3026 0.830566 21.4154 0.830566 26.1986H3.1542C3.1542 21.0518 7.30188 16.9041 12.4487 16.9041C14.0462 16.9041 15.5345 17.3223 16.8415 18.0299C15.5037 19.6843 14.7734 21.7473 14.7723 23.875C14.7723 28.9939 18.9479 33.1695 24.0669 33.1695C29.1858 33.1695 33.3614 28.9939 33.3614 23.875C33.3614 18.756 29.1858 14.5805 24.0669 14.5805C22.1089 14.5821 20.2019 15.2049 18.6203 16.3592C18.0983 16.0387 17.5522 15.7594 16.9868 15.5238C18.0921 14.7777 18.9977 13.7721 19.6243 12.5949C20.251 11.4177 20.5796 10.1049 20.5814 8.77138C20.5814 4.29258 16.9275 0.638672 12.4487 0.638672ZM12.4487 2.9623C15.6704 2.9623 18.2578 5.54966 18.2578 8.77138C18.2578 11.9931 15.6704 14.5805 12.4487 14.5805C9.227 14.5805 6.63964 11.9931 6.63964 8.77138C6.63964 5.54966 9.227 2.9623 12.4487 2.9623ZM24.0669 16.9041C27.9287 16.9041 31.0378 20.0131 31.0378 23.875C31.0378 27.7368 27.9287 30.8459 24.0669 30.8459C20.205 30.8459 17.096 27.7368 17.096 23.875C17.096 20.0131 20.205 16.9041 24.0669 16.9041ZM22.9051 19.2277V22.7132H19.4196V25.0368H22.9051V28.5222H25.2287V25.0368H28.7141V22.7132H25.2287V19.2277H22.9051Z" fill="#F1C21D"/>
</svg>
