<svg width="45" height="20" viewBox="0 0 45 20" fill="none" xmlns="http://www.w3.org/2000/svg">
<path d="M4.66699 14.9472C4.66699 17.4967 6.72955 19.5743 9.35444 19.5743C11.9793 19.5743 14.0419 17.4967 14.0419 14.9472C14.0419 12.3977 11.9793 10.2256 9.35444 10.2256C6.72955 10.2256 4.66699 12.3977 4.66699 14.9472Z" fill="#2A70E2"/>
<path d="M36.5424 19.5753C39.0735 19.5753 41.2299 17.4977 41.2299 14.9482C41.2299 12.3987 39.1673 10.2266 36.5424 10.2266C33.9175 10.2266 31.855 12.3042 31.855 14.9482C31.9488 17.4977 34.0114 19.5753 36.5424 19.5753Z" fill="#2A70E2"/>
<path d="M44.2295 7.77053C43.9483 7.20404 43.5732 6.63725 43.0108 6.35396C40.3859 4.93738 37.0109 4.74868 34.1047 4.65417C34.0108 4.65417 33.8235 4.65417 33.7296 4.55964L27.6359 1.25458C27.542 1.16005 27.167 1.06586 26.7923 0.97133C23.0422 0.310317 19.1987 0.215791 15.3549 0.876804C14.7925 0.971329 14.3237 1.25458 13.9486 1.63234L10.4798 5.31522L2.22998 5.1265C1.38641 5.1265 0.636337 5.69299 0.448672 6.54307C0.0736348 9.09259 -0.114047 10.9812 0.0736348 12.4923C0.0736348 12.5868 0.167476 12.7755 0.167476 12.87C0.729869 13.9088 1.66729 14.7585 2.79236 15.325V14.9473C2.79236 11.3589 5.69849 8.33713 9.35462 8.33713C13.0108 8.33713 15.9169 11.2645 15.9169 14.9473C15.9169 15.2305 15.9169 15.6083 15.823 15.8915H30.2604C30.1665 15.6083 30.1665 15.2305 30.1665 14.9473C30.1665 11.3589 33.0727 8.33713 36.7288 8.33713C40.3849 8.33713 43.291 11.2645 43.291 14.9473V15.4196C43.5722 15.2308 43.8534 15.0418 44.1346 14.7585C45.5416 13.0588 44.9792 9.65917 44.2291 7.7706L44.2295 7.77053ZM30.8234 6.82629C30.5422 7.01501 30.261 7.20406 29.9798 7.20406L24.3549 6.92081L23.8861 5.12651C23.7922 4.65421 23.2298 4.37097 22.761 4.46549C22.2921 4.56002 22.0109 5.12651 22.1048 5.59877L22.386 6.82631L19.7611 6.63759L17.0424 5.1265L18.8237 2.48246C22.4799 2.19922 26.136 2.76571 26.7922 2.95476L31.9486 5.78792L30.8234 6.82629Z" fill="#2A70E2"/>
</svg>
