<?xml version="1.0" encoding="UTF-8" standalone="no"?>
<!-- Created with Inkscape (http://www.inkscape.org/) -->

<svg
   width="48"
   height="48"
   viewBox="0 0 12.7 12.7"
   version="1.1"
   id="svg5"
   xmlns="http://www.w3.org/2000/svg"
   xmlns:svg="http://www.w3.org/2000/svg">
  <defs
     id="defs2" />
  <g
     id="layer1">
    <path
       d="M 10.518327,2.5336275 H 9.3182833 v -0.42404 c 0,-0.112464 -0.04466,-0.220321 -0.124196,-0.299844 -0.07951,-0.07952 -0.187378,-0.124198 -0.299826,-0.124198 -0.112474,0 -0.220318,0.04468 -0.299852,0.124198 -0.07953,0.07952 -0.124195,0.18738 -0.124195,0.299844 v 0.42404 h -4.240425 v -0.42404 c 0,-0.112464 -0.04466,-0.220321 -0.124195,-0.299844 -0.07953,-0.07952 -0.187378,-0.124198 -0.2998416,-0.124198 -0.1124612,0 -0.2203186,0.04468 -0.2998417,0.124198 -0.079523,0.07952 -0.1241981,0.18738 -0.1241981,0.299844 v 0.42404 H 2.181674 c -0.2440438,0 -0.4780915,0.09695 -0.650658,0.269512 -0.172565,0.172567 -0.2695112,0.406615 -0.2695112,0.650658 v 6.6404885 c 0,0.244053 0.096946,0.478102 0.2695112,0.650664 0.1725665,0.172562 0.4066142,0.269505 0.650658,0.269505 h 8.336653 c 0.244051,0 0.478102,-0.09694 0.650663,-0.269505 0.172561,-0.172562 0.269505,-0.406611 0.269505,-0.650664 V 3.4537975 c 0,-0.244043 -0.09694,-0.478091 -0.269505,-0.650658 -0.172561,-0.172566 -0.406612,-0.269512 -0.650663,-0.269512 z m -8.336653,0.848085 h 1.2000389 v 0.424039 c 0,0.112464 0.044675,0.220322 0.1241981,0.29985 0.079523,0.07951 0.1873805,0.124196 0.2998417,0.124196 0.1124636,0 0.2203076,-0.04469 0.2998416,-0.124196 0.07953,-0.07953 0.124195,-0.187386 0.124195,-0.29985 v -0.424039 h 4.240425 v 0.424039 c 0,0.112464 0.04466,0.220322 0.124195,0.29985 0.07953,0.07951 0.187378,0.124196 0.299852,0.124196 0.112448,0 0.220319,-0.04469 0.299826,-0.124196 0.07953,-0.07953 0.124196,-0.187386 0.124196,-0.29985 v -0.424039 h 1.2000437 c 0.01879,10e-4 0.03654,0.0089 0.04985,0.02224 0.01331,0.0133 0.02122,0.03105 0.02225,0.04984 v 1.200047 H 2.1095882 v -1.200047 c 0.00102,-0.01879 0.00894,-0.03654 0.022244,-0.04984 0.013306,-0.01331 0.031054,-0.02123 0.049842,-0.02224 z m 8.336653,6.7846735 H 2.181674 c -0.018788,-0.001 -0.036536,-0.0089 -0.049842,-0.02225 -0.013306,-0.01331 -0.021228,-0.03106 -0.022244,-0.04985 V 5.5019125 h 8.480838 v 4.5923725 c -0.001,0.01879 -0.0089,0.03654 -0.02225,0.04985 -0.01331,0.01331 -0.03106,0.02122 -0.04985,0.02225 z M 4.6538373,6.7740305 c 0,0.112474 -0.04469,0.220345 -0.1241951,0.299852 -0.07953,0.07953 -0.187378,0.124196 -0.299853,0.124196 H 3.3817128 c -0.1124638,0 -0.2203212,-0.04466 -0.2998443,-0.124196 -0.079523,-0.07951 -0.124198,-0.187378 -0.124198,-0.299852 0,-0.112448 0.044675,-0.220319 0.124198,-0.299826 0.079523,-0.07953 0.1873806,-0.124195 0.2998443,-0.124195 h 0.8480764 c 0.112475,0 0.220319,0.04466 0.299853,0.124195 0.07951,0.07951 0.1241951,0.187378 0.1241951,0.299826 z m 2.54426,0 c 0,0.112474 -0.04469,0.220345 -0.124222,0.299852 -0.07951,0.07953 -0.187378,0.124196 -0.299826,0.124196 h -0.848095 c -0.1124481,0 -0.2203191,-0.04466 -0.299826,-0.124196 -0.07953,-0.07951 -0.124195,-0.187378 -0.124195,-0.299852 0,-0.112448 0.04466,-0.220319 0.124195,-0.299826 0.07951,-0.07953 0.187378,-0.124195 0.299826,-0.124195 h 0.848095 c 0.112448,0 0.220319,0.04466 0.299826,0.124195 0.07953,0.07951 0.124222,0.187378 0.124222,0.299826 z m 2.544233,0 c 0,0.112474 -0.04466,0.220345 -0.124195,0.299852 -0.07953,0.07953 -0.187378,0.124196 -0.299852,0.124196 h -0.848069 c -0.112475,0 -0.220319,-0.04466 -0.299853,-0.124196 -0.07951,-0.07951 -0.124195,-0.187378 -0.124195,-0.299852 0,-0.112448 0.04469,-0.220319 0.124195,-0.299826 0.07953,-0.07953 0.187378,-0.124195 0.299853,-0.124195 h 0.848069 c 0.112474,0 0.220318,0.04466 0.299852,0.124195 0.07953,0.07951 0.124195,0.187378 0.124195,0.299826 z m -5.088493,1.696191 c 0,0.112448 -0.04469,0.220318 -0.1241951,0.299825 -0.07953,0.07953 -0.187378,0.124196 -0.299853,0.124196 H 3.3817128 c -0.1124638,0 -0.2203212,-0.04466 -0.2998443,-0.124196 -0.079523,-0.07951 -0.124198,-0.187377 -0.124198,-0.299825 0,-0.112475 0.044675,-0.220319 0.124198,-0.299853 0.079523,-0.07953 0.1873806,-0.124195 0.2998443,-0.124195 h 0.8480764 c 0.112475,0 0.220319,0.04466 0.299853,0.124195 0.07951,0.07953 0.1241951,0.187378 0.1241951,0.299853 z m 2.54426,0 c 0,0.112448 -0.04469,0.220318 -0.124222,0.299825 -0.07951,0.07953 -0.187378,0.124196 -0.299826,0.124196 h -0.848095 c -0.1124481,0 -0.2203191,-0.04466 -0.299826,-0.124196 -0.07953,-0.07951 -0.124195,-0.187377 -0.124195,-0.299825 0,-0.112475 0.04466,-0.220319 0.124195,-0.299853 0.07951,-0.07953 0.187378,-0.124195 0.299826,-0.124195 h 0.848095 c 0.112448,0 0.220319,0.04466 0.299826,0.124195 0.07953,0.07953 0.124222,0.187378 0.124222,0.299853 z m 2.544233,0 c 0,0.112448 -0.04466,0.220318 -0.124195,0.299825 -0.07953,0.07953 -0.187378,0.124196 -0.299852,0.124196 h -0.848069 c -0.112475,0 -0.220319,-0.04466 -0.299853,-0.124196 -0.07951,-0.07951 -0.124195,-0.187377 -0.124195,-0.299825 0,-0.112475 0.04469,-0.220319 0.124195,-0.299853 0.07953,-0.07953 0.187378,-0.124195 0.299853,-0.124195 h 0.848069 c 0.112474,0 0.220318,0.04466 0.299852,0.124195 0.07953,0.07953 0.124195,0.187378 0.124195,0.299853 z"
       fill="#9361ff"
       id="path2"
       style="stroke-width:0.264583" />
  </g>
</svg>
