<?xml version="1.0" encoding="UTF-8" standalone="no"?>
<svg
   width="48"
   height="47"
   viewBox="0 0 48 47"
   fill="none"
   version="1.1"
   id="svg10"
   xmlns="http://www.w3.org/2000/svg"
   xmlns:svg="http://www.w3.org/2000/svg">
  <defs
     id="defs14" />
  <g
     id="g1439"
     transform="matrix(1.9454429,0,0,1.9454429,-70.684169,21.967894)">
    <path
       d="m 57.274124,-5.534364 -4.8726,-4.78931 c -0.2547,-0.25079 -0.594,-0.38879 -0.9549,-0.38879 h -10.4269 c -0.7443,0 -1.35,0.59535 -1.35,1.32692 v 16.80768 c 0,0.7316 0.6057,1.3269 1.35,1.3269 h 0.9 v 0.4423 c 0,0.5759 0.37755,1.0625 0.9,1.2456 v 0.5237 c 0,0.7316 0.6057,1.3269 1.35,1.3269 0.7443,0 1.35,-0.5953 1.35,-1.3269 v -0.4423 h 6.3 v 0.4423 c 0,0.7316 0.6057,1.3269 1.35,1.3269 0.7443,0 1.35,-0.5953 1.35,-1.3269 v -0.5237 c 0.5224,-0.1831 0.9,-0.6697 0.9,-1.2456 v -0.4423 h 0.9 c 0.7443,0 1.35,-0.5953 1.35,-1.3269 v -12.01793 c 0,-0.35473 -0.1404,-0.68823 -0.3956,-0.93857 z m -1.1407,0.12959 h -3.8637 v -3.79765 z m -11.5137,16.36541 c 0,0.2437 -0.20205,0.4423 -0.45,0.4423 -0.24795,0 -0.45,-0.1986 -0.45,-0.4423 v -0.4423 h 0.9 z m 8.55,0.4423 c -0.2479,0 -0.45,-0.1986 -0.45,-0.4423 v -0.4423 h 0.9 v 0.4423 c 0,0.2437 -0.2021,0.4423 -0.45,0.4423 z m 1.35,-2.2116 c 0,0.2438 -0.2021,0.4424 -0.45,0.4424 h -10.8 c -0.24795,0 -0.45,-0.1986 -0.45,-0.4424 v -1.4025 c 0,-0.1181 0.0468,-0.2296 0.13185,-0.3132 l 0.50445,-0.4958 h 10.4274 l 0.5045,0.4958 c 0.085,0.0836 0.1318,0.1951 0.1318,0.3132 z m -10.67355,-3.0961 0.5895,-2.3186 c 0.04995,-0.1973 0.2295,-0.3353 0.4365,-0.3353 h 7.59465 c 0.207,0 0.3866,0.138 0.4365,0.3353 l 0.59,2.3186 z m 12.47355,1.7692 h -0.9 v -0.0756 c 0,-0.3543 -0.1404,-0.6878 -0.3956,-0.9386 l -0.5481,-0.5387 -0.6993,-2.7498 c -0.1503,-0.5914 -0.6889,-1.005 -1.3099,-1.005 h -7.5942 c -0.62055,0 -1.1592,0.4136 -1.30995,1.005 l -0.6993,2.7498 -0.5481,0.5387 c -0.25515,0.2504 -0.39555,0.5839 -0.39555,0.9386 v 0.0756 h -0.9 c -0.24795,0 -0.45,-0.1986 -0.45,-0.4423 v -16.80768 c 0,-0.24371 0.20205,-0.4423 0.45,-0.4423 h 10.35 v 4.86538 c 0,0.24415 0.2016,0.44231 0.45,0.44231 h 4.95 v 11.94229 c 0,0.2437 -0.2021,0.4423 -0.45,0.4423 z"
       fill="#1da5f1"
       id="path2" />
    <path
       d="m 45.069724,7.864436 h -0.9 c -0.2484,0 -0.45,0.1982 -0.45,0.4423 0,0.2442 0.2016,0.4423 0.45,0.4423 h 0.9 c 0.2484,0 0.45,-0.1981 0.45,-0.4423 0,-0.2441 -0.2016,-0.4423 -0.45,-0.4423 z"
       fill="#1da5f1"
       id="path4" />
    <path
       d="m 53.169724,7.864436 h -0.9 c -0.2484,0 -0.45,0.1982 -0.45,0.4423 0,0.2442 0.2016,0.4423 0.45,0.4423 h 0.9 c 0.2484,0 0.45,-0.1981 0.45,-0.4423 0,-0.2441 -0.2016,-0.4423 -0.45,-0.4423 z"
       fill="#1da5f1"
       id="path6" />
    <path
       d="m 42.819724,-7.174004 h 2.7 c 0.2484,0 0.45,-0.19815 0.45,-0.44231 0,-0.24415 -0.2016,-0.4423 -0.45,-0.4423 h -2.7 c -0.2484,0 -0.45,0.19815 -0.45,0.4423 0,0.24416 0.2016,0.44231 0.45,0.44231 z"
       fill="#1da5f1"
       id="path8" />
    <path
       d="m 42.819724,-4.520154 h 4.5 c 0.2484,0 0.45,-0.19816 0.45,-0.44231 0,-0.24415 -0.2016,-0.44231 -0.45,-0.44231 h -4.5 c -0.2484,0 -0.45,0.19816 -0.45,0.44231 0,0.24415 0.2016,0.44231 0.45,0.44231 z"
       fill="#1da5f1"
       id="path10" />
    <path
       d="m 50.019724,-2.750924 h -7.2 c -0.2484,0 -0.45,0.19815 -0.45,0.44231 0,0.24415 0.2016,0.4423 0.45,0.4423 h 7.2 c 0.2484,0 0.45,-0.19815 0.45,-0.4423 0,-0.24416 -0.2016,-0.44231 -0.45,-0.44231 z"
       fill="#1da5f1"
       id="path12" />
    <path
       d="m 45.519724,-0.097064 h -2.7 c -0.2484,0 -0.45,0.1981 -0.45,0.4423 0,0.2441 0.2016,0.4423 0.45,0.4423 h 2.7 c 0.2484,0 0.45,-0.1982 0.45,-0.4423 0,-0.2442 -0.2016,-0.4423 -0.45,-0.4423 z"
       fill="#1da5f1"
       id="path14" />
    <path
       d="m 54.519724,-2.750924 h -2.7 c -0.2484,0 -0.45,0.19815 -0.45,0.44231 0,0.24415 0.2016,0.4423 0.45,0.4423 h 2.7 c 0.2484,0 0.45,-0.19815 0.45,-0.4423 0,-0.24416 -0.2016,-0.44231 -0.45,-0.44231 z"
       fill="#1da5f1"
       id="path16" />
    <path
       d="m 54.519724,-0.097064 h -7.2 c -0.2484,0 -0.45,0.1981 -0.45,0.4423 0,0.2441 0.2016,0.4423 0.45,0.4423 h 7.2 c 0.2484,0 0.45,-0.1982 0.45,-0.4423 0,-0.2442 -0.2016,-0.4423 -0.45,-0.4423 z"
       fill="#1da5f1"
       id="path18" />
    <path
       d="m 57.274124,-5.534364 -4.8726,-4.78931 c -0.2547,-0.25079 -0.594,-0.38879 -0.9549,-0.38879 h -10.4269 c -0.7443,0 -1.35,0.59535 -1.35,1.32692 v 16.80768 c 0,0.7316 0.6057,1.3269 1.35,1.3269 h 0.9 v 0.4423 c 0,0.5759 0.37755,1.0625 0.9,1.2456 v 0.5237 c 0,0.7316 0.6057,1.3269 1.35,1.3269 0.7443,0 1.35,-0.5953 1.35,-1.3269 v -0.4423 h 6.3 v 0.4423 c 0,0.7316 0.6057,1.3269 1.35,1.3269 0.7443,0 1.35,-0.5953 1.35,-1.3269 v -0.5237 c 0.5224,-0.1831 0.9,-0.6697 0.9,-1.2456 v -0.4423 h 0.9 c 0.7443,0 1.35,-0.5953 1.35,-1.3269 v -12.01793 c 0,-0.35473 -0.1404,-0.68823 -0.3956,-0.93857 z m -1.1407,0.12959 h -3.8637 v -3.79765 z m -11.5137,16.36541 c 0,0.2437 -0.20205,0.4423 -0.45,0.4423 -0.24795,0 -0.45,-0.1986 -0.45,-0.4423 v -0.4423 h 0.9 z m 8.55,0.4423 c -0.2479,0 -0.45,-0.1986 -0.45,-0.4423 v -0.4423 h 0.9 v 0.4423 c 0,0.2437 -0.2021,0.4423 -0.45,0.4423 z m 1.35,-2.2116 c 0,0.2438 -0.2021,0.4424 -0.45,0.4424 h -10.8 c -0.24795,0 -0.45,-0.1986 -0.45,-0.4424 v -1.4025 c 0,-0.1181 0.0468,-0.2296 0.13185,-0.3132 l 0.50445,-0.4958 h 10.4274 l 0.5045,0.4958 c 0.085,0.0836 0.1318,0.1951 0.1318,0.3132 z m -10.67355,-3.0961 0.5895,-2.3186 c 0.04995,-0.1973 0.2295,-0.3353 0.4365,-0.3353 h 7.59465 c 0.207,0 0.3866,0.138 0.4365,0.3353 l 0.59,2.3186 z m 12.47355,1.7692 h -0.9 v -0.0756 c 0,-0.3543 -0.1404,-0.6878 -0.3956,-0.9386 l -0.5481,-0.5387 -0.6993,-2.7498 c -0.1503,-0.5914 -0.6889,-1.005 -1.3099,-1.005 h -7.5942 c -0.62055,0 -1.1592,0.4136 -1.30995,1.005 l -0.6993,2.7498 -0.5481,0.5387 c -0.25515,0.2504 -0.39555,0.5839 -0.39555,0.9386 v 0.0756 h -0.9 c -0.24795,0 -0.45,-0.1986 -0.45,-0.4423 v -16.80768 c 0,-0.24371 0.20205,-0.4423 0.45,-0.4423 h 10.35 v 4.86538 c 0,0.24415 0.2016,0.44231 0.45,0.44231 h 4.95 v 11.94229 c 0,0.2437 -0.2021,0.4423 -0.45,0.4423 z"
       stroke="#1da5f1"
       stroke-width="0.3"
       id="path20" />
    <path
       d="m 45.069724,7.864436 h -0.9 c -0.2484,0 -0.45,0.1982 -0.45,0.4423 0,0.2442 0.2016,0.4423 0.45,0.4423 h 0.9 c 0.2484,0 0.45,-0.1981 0.45,-0.4423 0,-0.2441 -0.2016,-0.4423 -0.45,-0.4423 z"
       stroke="#1da5f1"
       stroke-width="0.3"
       id="path22" />
    <path
       d="m 53.169724,7.864436 h -0.9 c -0.2484,0 -0.45,0.1982 -0.45,0.4423 0,0.2442 0.2016,0.4423 0.45,0.4423 h 0.9 c 0.2484,0 0.45,-0.1981 0.45,-0.4423 0,-0.2441 -0.2016,-0.4423 -0.45,-0.4423 z"
       stroke="#1da5f1"
       stroke-width="0.3"
       id="path24" />
    <path
       d="m 42.819724,-7.174004 h 2.7 c 0.2484,0 0.45,-0.19815 0.45,-0.44231 0,-0.24415 -0.2016,-0.4423 -0.45,-0.4423 h -2.7 c -0.2484,0 -0.45,0.19815 -0.45,0.4423 0,0.24416 0.2016,0.44231 0.45,0.44231 z"
       stroke="#1da5f1"
       stroke-width="0.3"
       id="path26" />
    <path
       d="m 42.819724,-4.520154 h 4.5 c 0.2484,0 0.45,-0.19816 0.45,-0.44231 0,-0.24415 -0.2016,-0.44231 -0.45,-0.44231 h -4.5 c -0.2484,0 -0.45,0.19816 -0.45,0.44231 0,0.24415 0.2016,0.44231 0.45,0.44231 z"
       stroke="#1da5f1"
       stroke-width="0.3"
       id="path28" />
    <path
       d="m 50.019724,-2.750924 h -7.2 c -0.2484,0 -0.45,0.19815 -0.45,0.44231 0,0.24415 0.2016,0.4423 0.45,0.4423 h 7.2 c 0.2484,0 0.45,-0.19815 0.45,-0.4423 0,-0.24416 -0.2016,-0.44231 -0.45,-0.44231 z"
       stroke="#1da5f1"
       stroke-width="0.3"
       id="path30" />
    <path
       d="m 45.519724,-0.097064 h -2.7 c -0.2484,0 -0.45,0.1981 -0.45,0.4423 0,0.2441 0.2016,0.4423 0.45,0.4423 h 2.7 c 0.2484,0 0.45,-0.1982 0.45,-0.4423 0,-0.2442 -0.2016,-0.4423 -0.45,-0.4423 z"
       stroke="#1da5f1"
       stroke-width="0.3"
       id="path32" />
    <path
       d="m 54.519724,-2.750924 h -2.7 c -0.2484,0 -0.45,0.19815 -0.45,0.44231 0,0.24415 0.2016,0.4423 0.45,0.4423 h 2.7 c 0.2484,0 0.45,-0.19815 0.45,-0.4423 0,-0.24416 -0.2016,-0.44231 -0.45,-0.44231 z"
       stroke="#1da5f1"
       stroke-width="0.3"
       id="path34" />
    <path
       d="m 54.519724,-0.097064 h -7.2 c -0.2484,0 -0.45,0.1981 -0.45,0.4423 0,0.2441 0.2016,0.4423 0.45,0.4423 h 7.2 c 0.2484,0 0.45,-0.1982 0.45,-0.4423 0,-0.2442 -0.2016,-0.4423 -0.45,-0.4423 z"
       stroke="#1da5f1"
       stroke-width="0.3"
       id="path36" />
  </g>
</svg>
