<?xml version="1.0" encoding="UTF-8" standalone="no"?>
<svg
   width="43"
   height="25"
   viewBox="0 0 43 25"
   fill="none"
   version="1.1"
   id="svg14"
   xmlns="http://www.w3.org/2000/svg"
   xmlns:svg="http://www.w3.org/2000/svg">
  <defs
     id="defs18" />
  <path
     d="M24.3022 7.27852V7.26114C24.2962 7.18743 24.2824 7.11458 24.2608 7.04383C23.978 5.73998 22.997 4.56217 21.6918 4.22751C21.0478 4.07128 20.3936 3.9609 19.734 3.8972C19.4858 3.88457 19.2442 3.81388 19.0284 3.69083C18.8127 3.56777 18.6289 3.3958 18.4918 3.18878C17.3324 1.53289 15.7139 0.581076 13.73 0.222517C11.8696 -0.0784853 9.97238 -0.0740813 8.11333 0.235556C7.58234 0.306648 7.07388 0.495089 6.62496 0.78717C6.17603 1.07925 5.79793 1.46763 5.51816 1.92404C5.28105 2.29129 5.09614 2.69766 4.83945 3.0497C4.59808 3.43384 4.29702 3.77714 3.94757 4.0667C3.64001 4.26526 3.37534 4.52329 3.16912 4.82558C2.96289 5.12788 2.8193 5.46833 2.74678 5.8269C2.65759 6.30715 2.59886 6.79175 2.54883 7.27852H2.5597C2.55647 7.32772 2.55647 7.37709 2.5597 7.42629V8.51283C2.56254 8.62621 2.60963 8.73398 2.69092 8.81315C2.7722 8.89232 2.88124 8.93662 2.99477 8.93658H4.62627C4.69362 8.29039 4.99826 7.69204 5.48136 7.25708C5.96445 6.82212 6.59175 6.58139 7.24211 6.58139C7.89247 6.58139 8.51976 6.82212 9.00286 7.25708C9.48596 7.69204 9.7906 8.29039 9.85795 8.93658H17.6391C17.6391 8.90399 17.6391 8.87139 17.6391 8.83879C17.6588 8.1548 17.9446 7.50541 18.4359 7.02856C18.9272 6.5517 19.5852 6.28495 20.2702 6.28495C20.9552 6.28495 21.6132 6.5517 22.1044 7.02856C22.5957 7.50541 22.8816 8.1548 22.9012 8.83879C22.9012 8.87139 22.9012 8.90399 22.9012 8.93658H23.8867C24.0002 8.93662 24.1092 8.89232 24.1905 8.81315C24.2718 8.73398 24.3189 8.62621 24.3217 8.51283V7.33502C24.3228 7.3162 24.3228 7.29734 24.3217 7.27852H24.3022ZM11.1196 4.35572C9.81444 4.35572 8.54405 4.38832 7.27583 4.34051C6.65151 4.31878 6.50576 3.98847 6.73634 3.39739C7.50206 1.44162 8.73765 0.802731 11.1196 1.16781V4.35572ZM16.7342 4.35572C15.318 4.37745 13.9062 4.35572 12.4074 4.35572V1.20041C14.0411 0.898346 16.4927 2.15656 17.1932 3.6473C17.4064 4.11451 17.2824 4.3579 16.7342 4.36659V4.35572Z"
     fill="#2A70E2"
     id="path2" />
  <path
     d="M7.21927 7.15686C6.80992 7.15773 6.41004 7.27988 6.07023 7.50787C5.73041 7.73586 5.46594 8.05944 5.31029 8.43764C5.15464 8.81584 5.1148 9.23167 5.19582 9.6325C5.27684 10.0333 5.47508 10.4011 5.76544 10.6894C6.0558 10.9776 6.42524 11.1733 6.82698 11.2517C7.22873 11.3301 7.64473 11.2877 8.02234 11.1298C8.39994 10.972 8.72217 10.7057 8.94825 10.3648C9.17432 10.0239 9.29408 9.62369 9.29236 9.21477C9.2915 8.94367 9.2372 8.67539 9.13256 8.42524C9.02791 8.1751 8.87497 7.948 8.68246 7.75691C8.48996 7.56581 8.26166 7.41447 8.01061 7.31151C7.75955 7.20855 7.49065 7.156 7.21927 7.15686ZM7.21927 10.1405C7.03718 10.1405 6.85919 10.0865 6.70782 9.98544C6.55646 9.88434 6.43852 9.74065 6.36894 9.57256C6.29936 9.40446 6.28126 9.21953 6.31694 9.04116C6.35263 8.86279 6.44048 8.69901 6.56938 8.57054C6.69829 8.44207 6.86245 8.3547 7.04109 8.31948C7.21973 8.28425 7.40481 8.30277 7.57291 8.37267C7.74101 8.44258 7.88457 8.56074 7.98541 8.71219C8.08626 8.86364 8.13986 9.04157 8.13943 9.22347C8.13714 9.46555 8.03911 9.6969 7.86673 9.86706C7.69435 10.0372 7.46161 10.1324 7.21927 10.1318V10.1405Z"
     fill="#2A70E2"
     id="path4" />
  <path
     d="M22.3444 8.84317C22.3444 8.43434 22.223 8.03469 21.9956 7.6948C21.7681 7.3549 21.4449 7.09002 21.0668 6.93367C20.6886 6.77731 20.2726 6.73652 19.8712 6.81643C19.4699 6.89635 19.1013 7.09339 18.812 7.38263C18.5228 7.67186 18.3259 8.0403 18.2464 8.44132C18.1668 8.84235 18.2081 9.25794 18.365 9.63553C18.5219 10.0131 18.7874 10.3357 19.1279 10.5625C19.4684 10.7894 19.8685 10.9102 20.2778 10.9098C20.5494 10.9098 20.8183 10.8563 21.0691 10.7524C21.32 10.6485 21.5479 10.4963 21.7398 10.3043C21.9318 10.1124 22.0839 9.88457 22.1877 9.63386C22.2914 9.38314 22.3446 9.11445 22.3444 8.84317ZM19.3576 8.84317C19.3581 8.66099 19.4127 8.48306 19.5145 8.33196C19.6164 8.18086 19.7609 8.06339 19.9297 7.99449C20.0985 7.92558 20.284 7.90833 20.4627 7.94493C20.6413 7.98154 20.805 8.07034 20.9331 8.20007C21.0611 8.3298 21.1476 8.4946 21.1817 8.67356C21.2158 8.85252 21.1959 9.03756 21.1245 9.2052C21.0532 9.37283 20.9335 9.5155 20.7808 9.61509C20.6281 9.71468 20.4493 9.7667 20.2669 9.76455C20.0227 9.76398 19.7886 9.66665 19.6161 9.49392C19.4436 9.32119 19.3467 9.08716 19.3467 8.84317H19.3576Z"
     fill="#2A70E2"
     id="path6" />
  <path
     d="M38.2827 10.9588C38.8111 10.932 39.3551 11.2617 39.6656 11.7959C40.0885 12.5278 39.9431 13.4045 39.3339 13.7564C38.7273 14.1051 37.8888 13.794 37.4633 13.0589C37.0374 12.327 37.1854 11.4497 37.7951 11.101C37.9426 11.015 38.1072 10.9671 38.2827 10.9588ZM30.1178 2.90003H33.0401C33.7569 2.90003 33.8537 2.90003 34.2502 3.55216L37.0265 8.12834C37.4602 8.84485 37.2206 9.09931 36.5576 9.09931H30.1069C29.549 9.09931 29.3197 8.90872 29.3197 8.31893V3.69123C29.3197 3.18489 29.4465 2.90003 30.1178 2.90003ZM26.2981 0.000514821C25.7991 0.000514821 25.2256 0.499136 25.2256 1.10541V10.7337C25.2256 11.238 24.9611 11.6614 24.2764 11.6614L2.51052 11.6748C1.53436 11.6748 0.936035 12.3939 0.936035 13.3329V18.0863C0.936035 19.4112 1.85008 20.4821 2.99032 20.4821H5.31944C5.31944 17.2385 7.96324 14.6068 11.2219 14.6068C12.7881 14.6068 14.2871 15.227 15.3952 16.3262C16.5033 17.4291 17.1255 18.9254 17.1255 20.4821H25.8778C25.8778 17.2385 28.5195 14.6068 31.7782 14.6068C33.3439 14.6068 34.8459 15.227 35.953 16.3262C37.0586 17.4291 37.6812 18.9254 37.6812 20.4821H40.2847C41.2712 20.4821 42.0641 19.5533 42.0641 18.4062V12.7292C42.0641 10.9588 41.9047 10.5617 41.3954 9.72465L36.7434 2.07072C35.9292 0.731963 35.6973 0 34.0504 0L26.2981 0.000514821Z"
     fill="#2A70E2"
     id="path8" />
  <path
     d="M11.2219 24.9994C8.71529 24.9994 6.68068 22.9766 6.68068 20.482C6.68068 17.9868 8.71581 15.9619 11.2219 15.9619C12.4243 15.9619 13.5811 16.4389 14.4325 17.2873C15.2844 18.1352 15.7611 19.2833 15.7611 20.4825C15.7616 22.9766 13.7291 24.9994 11.2219 24.9994ZM11.2219 22.1746C12.1603 22.1746 12.9232 21.4148 12.9232 20.482C12.9232 19.546 12.1598 18.7862 11.2219 18.7862C10.2815 18.7862 9.51858 19.546 9.51858 20.482C9.51858 21.4148 10.2815 22.1746 11.2219 22.1746Z"
     fill="#2A70E2"
     id="path10" />
  <path
     d="M31.7782 24.9994C29.2711 24.9994 27.2385 22.9766 27.2385 20.482C27.2385 17.9868 29.2711 15.9619 31.7782 15.9619C32.9832 15.9619 34.1369 16.4389 34.9883 17.2873C35.8402 18.1352 36.32 19.2833 36.32 20.4825C36.3205 22.9766 34.2849 24.9994 31.7782 24.9994ZM31.7782 22.1746C32.7187 22.1746 33.4816 21.4148 33.4816 20.482C33.4816 19.546 32.7187 18.7862 31.7782 18.7862C30.8399 18.7862 30.0775 19.546 30.0775 20.482C30.0775 21.4148 30.8404 22.1746 31.7782 22.1746Z"
     fill="#2A70E2"
     id="path12" />
</svg>
