<?xml version="1.0" encoding="UTF-8" standalone="no"?>
<!-- Created with Inkscape (http://www.inkscape.org/) -->

<svg
   width="48"
   height="48"
   viewBox="0 0 12.7 12.7"
   version="1.1"
   id="svg5"
   xmlns="http://www.w3.org/2000/svg"
   xmlns:svg="http://www.w3.org/2000/svg">
  <defs
     id="defs2" />
  <g
     id="layer1">
    <g
       id="g850"
       transform="matrix(0.26458333,0,0,0.26458333,1.5674155,0.74833394)">
      <path
         d="m 6.67722,20.1835 v 1.1146 c 0,1.914 1.5839,3.4701 3.52888,3.4701 h 0.4803 c 1.945,0 3.528,-1.5561 3.528,-3.4701 v -0.3497 h 7.9666 v 0.3497 c 0,1.914 1.5821,3.4701 3.528,3.4701 h 0.4803 c 1.9459,0 3.528,-1.5561 3.528,-3.4701 v -1.329 c 0.664,-0.6313 1.0768,-1.5152 1.0768,-2.4927 v -5.7002 c 0,-1.18 -0.6021,-2.2247 -1.5201,-2.8515 L 26.108,1.14964 C 25.9094,0.663646 25.4319,0.345703 24.9009,0.345703 h -6.826 -6.8279 c -0.5311,0 -1.0085,0.317943 -1.2071,0.803937 L 6.87394,8.9247 C 5.95592,9.55059 5.35376,10.5962 5.35376,11.7762 v 5.7002 c 9.2e-4,1.0947 0.51812,2.0703 1.32346,2.7071 z M 27.2671,10.8632 c 0.5107,0 0.9272,0.4097 0.9272,0.9121 v 5.7002 c 0,0.5042 -0.4165,0.9139 -0.9272,0.9139 H 8.88268 c -0.51258,0 -0.92818,-0.4097 -0.92818,-0.9139 v -5.7002 c 0,-0.5024 0.4156,-0.9121 0.92818,-0.9121 z M 11.6146,21.2981 c 0,0.5042 -0.4166,0.9139 -0.9282,0.9139 h -0.4803 c -0.51161,0 -0.92814,-0.4097 -0.92814,-0.9139 v -0.3497 h 2.33664 z m 14.5756,0.913 h -0.4803 c -0.5125,0 -0.9291,-0.4097 -0.9291,-0.9139 v -0.3497 h 2.3376 v 0.3497 c 9e-4,0.5042 -0.4156,0.9139 -0.9282,0.9139 z M 12.1281,2.90287 h 5.9468 5.9468 l 2.199,5.40229 H 9.92907 Z"
         fill="#3ab974"
         id="path2" />
      <path
         d="M 14.7032,27.9668 H 1.47659 c -0.28665,0 -0.51907,0.6288 -0.51907,1.4031 0,0.7743 0.23242,1.4031 0.51907,1.4031 H 14.7032 c 0.2867,0 0.5195,-0.6288 0.5195,-1.4031 0,-0.7743 -0.2324,-1.4031 -0.5195,-1.4031 z"
         fill="#3ab974"
         id="path4" />
      <path
         d="M 23.2623,39.1914 H 1.47659 c -0.28665,0 -0.51907,0.6288 -0.51907,1.4031 0,0.7743 0.23242,1.4031 0.51907,1.4031 H 23.2623 c 0.2867,0 0.5195,-0.6288 0.5195,-1.4031 0,-0.7743 -0.2325,-1.4031 -0.5195,-1.4031 z"
         fill="#3ab974"
         id="path6" />
      <path
         d="M 26.1154,33.5801 H 1.47659 c -0.28665,0 -0.51907,0.6288 -0.51907,1.4031 0,0.7743 0.23242,1.4031 0.51907,1.4031 H 26.1154 c 0.2866,0 0.5194,-0.6288 0.5194,-1.4031 0,-0.7743 -0.2324,-1.4031 -0.5194,-1.4031 z"
         fill="#3ab974"
         id="path8" />
      <path
         d="m 34.5708,27.9668 h -15.872 c -0.344,0 -0.6229,0.6288 -0.6229,1.4031 0,0.7743 0.2789,1.4031 0.6229,1.4031 h 15.872 c 0.344,0 0.6233,-0.6288 0.6233,-1.4031 0,-0.7743 -0.2789,-1.4031 -0.6233,-1.4031 z"
         fill="#3ab974"
         id="path10" />
      <path
         d="m 34.571,39.1914 h -7.3129 c -0.3439,0 -0.6228,0.6288 -0.6228,1.4031 0,0.7743 0.2789,1.4031 0.6228,1.4031 h 7.3129 c 0.344,0 0.6233,-0.6288 0.6233,-1.4031 0,-0.7743 -0.2789,-1.4031 -0.6233,-1.4031 z"
         fill="#3ab974"
         id="path12" />
      <path
         d="m 34.5708,33.5801 h -15.872 c -0.344,0 -0.6229,0.6288 -0.6229,1.4031 0,0.7743 0.2789,1.4031 0.6229,1.4031 h 15.872 c 0.344,0 0.6233,-0.6288 0.6233,-1.4031 0,-0.7743 -0.2789,-1.4031 -0.6233,-1.4031 z"
         fill="#3ab974"
         id="path14" />
      <path
         d="m 11.6463,17.7076 c 1.7262,0 3.1318,-1.3817 3.1318,-3.0805 0,-1.6996 -1.4047,-3.0822 -3.1318,-3.0822 -1.72795,0 -3.1336,1.3817 -3.1336,3.0822 0,1.6988 1.40473,3.0805 3.1336,3.0805 z m 0,-3.6028 c 0.2919,0 0.5311,0.2344 0.5311,0.5233 0,0.287 -0.2392,0.5232 -0.5311,0.5232 -0.2937,0 -0.5319,-0.2362 -0.5319,-0.5232 -10e-4,-0.2898 0.2373,-0.5233 0.5319,-0.5233 z"
         fill="#3ab974"
         id="path16" />
      <path
         d="m 24.5033,17.7076 c 1.7279,0 3.1336,-1.3817 3.1336,-3.0805 0,-1.6996 -1.4047,-3.0822 -3.1336,-3.0822 -1.7289,0 -3.1337,1.3817 -3.1337,3.0822 0,1.6988 1.4057,3.0805 3.1337,3.0805 z m 0,-3.6028 c 0.2937,0 0.5319,0.2344 0.5319,0.5233 0,0.287 -0.2382,0.5232 -0.5319,0.5232 -0.2937,0 -0.532,-0.2362 -0.532,-0.5232 0,-0.2898 0.2383,-0.5233 0.532,-0.5233 z"
         fill="#3ab974"
         id="path18" />
    </g>
  </g>
</svg>
