<?xml version="1.0" encoding="UTF-8" standalone="no"?>
<!-- Created with Inkscape (http://www.inkscape.org/) -->

<svg
   width="48"
   height="48"
   viewBox="0 0 12.7 12.7"
   version="1.1"
   id="svg5"
   xmlns="http://www.w3.org/2000/svg"
   xmlns:svg="http://www.w3.org/2000/svg">
  <defs
     id="defs2" />
  <g
     id="layer1">
    <g
       id="g855"
       transform="matrix(0.23218642,0,0,0.23218642,0.50211347,2.1529419)">
      <g
         id="g846">
        <g
           id="g838">
          <path
             d="M 3.31386,35.6144 H 47.0584 c 1.6799,0 3.0239,-1.3439 3.0239,-3.0238 V 3.56191 c 0,-1.6799 -1.344,-3.023824 -3.0239,-3.023824 H 3.31386 c -1.6799,0 -3.023821,1.343924 -3.023821,3.023824 V 32.6578 c 0,1.6127 1.343921,2.9566 3.023821,2.9566 z M 2.97788,3.56191 c 0,-0.20159 0.13439,-0.33598 0.33598,-0.33598 H 47.0584 c 0.2016,0 0.336,0.13439 0.336,0.33598 V 32.6578 c 0,0.2015 -0.1344,0.3359 -0.336,0.3359 H 3.31386 c -0.20159,0 -0.33598,-0.1344 -0.33598,-0.3359 z"
             fill="#1df198"
             id="path2" />
          <path
             d="m 25.4471,29.0379 h 14.5804 c 0.7643,0 1.4698,-0.3759 1.999,-1.0022 0.4703,-0.6264 0.7055,-1.4406 0.5291,-2.1923 -0.6467,-3.5702 -2.8808,-6.4515 -5.8792,-7.8295 1.1758,-1.1274 1.9401,-2.8186 1.9401,-4.6351 0,-3.44494 -2.6456,-6.26357 -5.8792,-6.26357 -3.2335,0 -5.8792,2.81863 -5.8792,6.26357 0,1.8165 0.7643,3.5077 1.9402,4.6351 -2.9984,1.378 -5.2325,4.2593 -5.8792,7.8295 -0.1176,0.8143 0.0588,1.6286 0.5291,2.1923 0.5291,0.6263 1.2346,1.0022 1.9989,1.0022 z m 3.7627,-15.6591 c 0,-2.0669 1.5874,-3.75812 3.5275,-3.75812 1.9402,0 3.5275,1.69122 3.5275,3.75812 0,2.067 -1.5873,3.7582 -3.5275,3.7582 -1.9401,0 -3.5275,-1.6912 -3.5275,-3.7582 z m 3.5275,6.2636 c 3.7039,0 6.8199,2.8187 7.5254,6.6395 0,0.0626 0,0.1252 -0.0588,0.1879 0,0.0626 -0.0588,0.0626 -0.1764,0.0626 H 25.4471 c -0.1176,0 -0.1764,-0.0626 -0.1764,-0.0626 -0.0587,-0.0627 -0.0587,-0.1253 -0.0587,-0.1879 0.7055,-3.8208 3.8214,-6.6395 7.5253,-6.6395 z"
             fill="#1df198"
             id="path4" />
          <path
             d="M 9.02556,11.3568 H 18.433 c 0.7392,0 1.3439,-0.6048 1.3439,-1.3439 0,-0.73919 -0.6047,-1.34395 -1.3439,-1.34395 H 9.02556 c -0.73916,0 -1.34392,0.60476 -1.34392,1.34395 0,0.7391 0.60476,1.3439 1.34392,1.3439 z"
             fill="#1df198"
             id="path6" />
          <path
             d="M 9.02556,18.7474 H 18.433 c 0.7392,0 1.3439,-0.6048 1.3439,-1.3439 0,-0.7392 -0.6047,-1.3439 -1.3439,-1.3439 H 9.02556 c -0.73916,0 -1.34392,0.6047 -1.34392,1.3439 0,0.7391 0.60476,1.3439 1.34392,1.3439 z"
             fill="#1df198"
             id="path8" />
          <path
             d="M 9.02556,26.14 H 18.433 c 0.7392,0 1.3439,-0.6048 1.3439,-1.3439 0,-0.7392 -0.6047,-1.344 -1.3439,-1.344 H 9.02556 c -0.73916,0 -1.34392,0.6048 -1.34392,1.344 0,0.7391 0.60476,1.3439 1.34392,1.3439 z"
             fill="#1df198"
             id="path10" />
        </g>
      </g>
    </g>
  </g>
</svg>
