<?xml version="1.0" encoding="UTF-8" standalone="no"?>
<svg
   width="48"
   height="47"
   viewBox="0 0 48 47"
   fill="none"
   version="1.1"
   id="svg10"
   xmlns="http://www.w3.org/2000/svg"
   xmlns:svg="http://www.w3.org/2000/svg">
  <defs
     id="defs14" />
  <g
     id="g936"
     transform="matrix(1.7384803,0,0,1.7384803,-132.83399,-12.126487)">
    <path
       d="m 97.991572,12.649307 c 1.5383,1.55351 2.585898,3.53274 3.010298,5.68747 0.4245,2.1547 0.2066,4.3881 -0.6259,6.4177 -0.832598,2.0297 -2.242498,3.7645 -4.051398,4.9851 -1.8089,1.2206 -3.9357,1.8721 -6.1113,1.8723 h -0.5148 l 1.1497,1.1609 c 0.0495,0.05 0.0888,0.1094 0.1157,0.1748 0.0268,0.0654 0.0406,0.1355 0.0406,0.2063 0,0.0708 -0.0138,0.1409 -0.0406,0.2063 -0.0269,0.0654 -0.0662,0.1248 -0.1157,0.1749 -0.0496,0.05 -0.1085,0.0897 -0.1732,0.1168 -0.0648,0.0271 -0.1342,0.041 -0.2043,0.041 -0.0701,0 -0.1395,-0.0139 -0.2043,-0.041 -0.0647,-0.0271 -0.1236,-0.0668 -0.1731,-0.1168 l -2.05931,-2.0795 c -0.0496,-0.05 -0.08895,-0.1094 -0.1158,-0.1748 -0.02685,-0.0654 -0.04067,-0.1355 -0.04067,-0.2063 0,-0.0708 0.01382,-0.1409 0.04067,-0.2063 0.02685,-0.0654 0.0662,-0.1248 0.1158,-0.1748 l 2.05931,-2.0794 c 0.1008,-0.1011 0.2372,-0.1576 0.3793,-0.1571 0.1421,5e-4 0.2781,0.0579 0.3782,0.1597 0.1001,0.1018 0.1561,0.2396 0.1556,0.3831 -5e-4,0.1434 -0.0574,0.2808 -0.1582,0.3819 l -1.1497,1.1609 h 0.5148 c 1.9661,0.0013 3.8884,-0.5865 5.5234,-1.6891 1.6351,-1.1026 2.9093,-2.6704 3.6613,-4.5048 0.752098,-1.8343 0.948198,-3.8528 0.5634,-5.7998 -0.3847,-1.9469 -1.333,-3.7348 -2.7247,-5.13719 -0.0496,-0.05006 -0.0889,-0.10947 -0.1157,-0.17487 -0.0268,-0.0654 -0.0406,-0.13549 -0.0406,-0.20627 0,-0.07078 0.0138,-0.14087 0.0406,-0.20627 0.0268,-0.06539 0.0661,-0.12481 0.1157,-0.17487 0.0496,-0.05005 0.1084,-0.08975 0.1732,-0.11684 0.0647,-0.02709 0.1341,-0.04103 0.2042,-0.04103 0.0701,0 0.1396,0.01394 0.2043,0.04103 0.0648,0.02709 0.1236,0.06679 0.1732,0.11684 z m -14.8017,14.94647 c 0.1001,0.1011 0.15634,0.2382 0.15634,0.3811 0,0.143 -0.05624,0.2801 -0.15634,0.3812 -0.10011,0.101 -0.23588,0.1578 -0.37745,0.1578 -0.14157,0 -0.27734,-0.0568 -0.37744,-0.1578 -1.53834,-1.5535 -2.585952,-3.5328 -3.010364,-5.6875 -0.424411,-2.1547 -0.206564,-4.3881 0.625995,-6.41773 0.832559,-2.02968 2.242439,-3.7645 4.051369,-4.98508 1.80893,-1.22059 3.93566,-1.87214 6.11129,-1.87225 h 0.5335 l -1.1684,-1.18247 c -0.1001,-0.10108 -0.1563,-0.23818 -0.1563,-0.38113 0,-0.14296 0.0562,-0.28006 0.1563,-0.38114 0.1001,-0.10108 0.2359,-0.157872 0.3775,-0.157872 0.1416,0 0.2773,0.056792 0.3774,0.157872 l 2.0593,2.07941 c 0.0496,0.05004 0.089,0.10945 0.1158,0.17485 0.0269,0.06539 0.0407,0.1355 0.0407,0.20629 0,0.07079 -0.0138,0.14089 -0.0407,0.20629 -0.0268,0.0654 -0.0662,0.12481 -0.1158,0.17485 l -2.0593,2.07941 c -0.0499,0.05005 -0.1091,0.08968 -0.1742,0.11664 -0.065,0.02695 -0.1348,0.04069 -0.2051,0.04044 -0.1421,-5e-4 -0.2781,-0.05798 -0.3782,-0.15977 -0.0496,-0.05041 -0.0888,-0.11018 -0.1155,-0.1759 -0.0267,-0.06572 -0.0403,-0.13611 -0.0401,-0.20714 5e-4,-0.14346 0.0574,-0.28085 0.1582,-0.38193 l 1.1257,-1.13667 h -0.4908 c -1.96557,-7.9e-4 -3.88719,0.58727 -5.52165,1.68975 -1.63445,1.10248 -2.90826,2.6698 -3.66022,4.50358 -0.75195,1.8338 -0.948231,3.8517 -0.56401,5.7982 0.38423,1.9465 1.33169,3.7342 2.72248,5.1367 z"
       fill="#5c93e5"
       id="path2" />
    <path
       d="m 96.786172,19.220377 -0.2671,-0.2649 h 0.2569 c 0.1164,0 0.228,-0.0459 0.3103,-0.1275 0.0823,-0.0816 0.1285,-0.1923 0.1285,-0.3078 0,-0.1154 -0.0462,-0.2261 -0.1285,-0.3077 -0.0823,-0.0817 -0.1939,-0.1275 -0.3103,-0.1275 h -0.756 l -0.3321,-0.8237 c -0.1076,-0.2682 -0.2875,-0.5019 -0.5201,-0.6755 -0.2325,-0.1735 -0.5087,-0.28024 -0.7984,-0.30845 -2.4845,-0.24591 -4.9875,-0.24591 -7.47197,0 -0.28962,0.02821 -0.56583,0.13495 -0.79838,0.30845 -0.23255,0.1736 -0.41248,0.4073 -0.52009,0.6755 l -0.33208,0.8237 h -0.75603 c -0.11637,0 -0.22797,0.0458 -0.31025,0.1275 -0.08228,0.0816 -0.12851,0.1923 -0.12851,0.3077 0,0.1155 0.04623,0.2262 0.12851,0.3078 0.08228,0.0816 0.19388,0.1275 0.31025,0.1275 h 0.25695 l -0.2671,0.2649 c -0.27593,0.2723 -0.49468,0.5961 -0.64357,0.9528 -0.14888,0.3567 -0.22495,0.7392 -0.22379,1.1253 v 2.01 c 3.4e-4,0.2699 0.08487,0.5331 0.24198,0.7535 0.1571,0.2204 0.3791,0.3871 0.63553,0.4774 v 0.9483 c 0,0.1154 0.04623,0.2262 0.12851,0.3078 0.08228,0.0816 0.19388,0.1275 0.31025,0.1275 h 1.31626 c 0.11637,0 0.22797,-0.0459 0.31025,-0.1275 0.08228,-0.0816 0.12851,-0.1924 0.12851,-0.3078 v -0.874 h 7.89757 v 0.874 c 0,0.1154 0.0463,0.2262 0.1285,0.3078 0.0823,0.0816 0.1939,0.1275 0.3103,0.1275 h 1.3163 c 0.1163,0 0.2279,-0.0459 0.3102,-0.1275 0.0823,-0.0816 0.1285,-0.1924 0.1285,-0.3078 v -0.9488 c 0.2565,-0.0903 0.4784,-0.2571 0.6356,-0.4775 0.1571,-0.2203 0.2416,-0.4835 0.2419,-0.7535 v -2.0094 c 0.0012,-0.3861 -0.0749,-0.7686 -0.2238,-1.1253 -0.1488,-0.3567 -0.3676,-0.6805 -0.6435,-0.9528 z m -9.79992,-2.0769 c 1.21041,-0.1202 2.42932,-0.1801 3.64852,-0.1801 1.2192,0 2.4381,0.0599 3.6472,0.1801 0.1298,0.0126 0.2536,0.0604 0.3579,0.1382 0.1043,0.0778 0.185,0.1825 0.2333,0.3028 l 0.3773,0.9357 h -9.23415 l 0.37733,-0.9357 c 0.04842,-0.1205 0.12933,-0.2253 0.23387,-0.3031 0.10453,-0.0778 0.22865,-0.1255 0.35873,-0.1379 z m -1.17916,7.909 h -0.43876 v -0.4388 h 0.43876 z m 10.09138,0 h -0.4387 v -0.4388 h 0.4387 z m 0.8775,-1.7446 c 0,0.1155 -0.0462,0.2262 -0.1285,0.3078 -0.0823,0.0816 -0.1939,0.1275 -0.3102,0.1275 h -11.40769 c -0.11637,0 -0.22797,-0.0459 -0.31025,-0.1275 -0.08228,-0.0816 -0.12851,-0.1923 -0.12851,-0.3078 v -2.0094 c -7.1e-4,-0.2716 0.05288,-0.5407 0.15766,-0.7916 0.10477,-0.2509 0.25866,-0.4788 0.45276,-0.6703 l 0.4489,-0.4453 h 10.16653 l 0.4489,0.4453 c 0.1941,0.1915 0.348,0.4194 0.4528,0.6703 0.1047,0.2509 0.1583,0.52 0.1576,0.7916 z"
       fill="#5ca3e6"
       id="path4" />
    <path
       d="m 92.388472,21.131677 h -3.51007 c -0.11636,0 -0.22796,0.0459 -0.31025,0.1275 -0.08228,0.0816 -0.12851,0.1923 -0.12851,0.3077 0,0.1155 0.04623,0.2262 0.12851,0.3078 0.08229,0.0816 0.19389,0.1275 0.31025,0.1275 h 3.51007 c 0.1163,0 0.2279,-0.0459 0.3102,-0.1275 0.0823,-0.0816 0.1285,-0.1923 0.1285,-0.3078 0,-0.1154 -0.0462,-0.2261 -0.1285,-0.3077 -0.0823,-0.0816 -0.1939,-0.1275 -0.3102,-0.1275 z"
       fill="#5ca3e6"
       id="path6" />
    <path
       d="m 86.245852,20.261177 c -0.26033,0 -0.51482,0.0766 -0.73128,0.2201 -0.21646,0.1434 -0.38517,0.3474 -0.48479,0.586 -0.09963,0.2386 -0.1257,0.5011 -0.07491,0.7544 0.05079,0.2533 0.17615,0.4859 0.36024,0.6685 0.18408,0.1827 0.41862,0.307 0.67395,0.3574 0.25533,0.0504 0.51999,0.0245 0.7605,-0.0743 0.24052,-0.0988 0.44609,-0.2662 0.59073,-0.4809 0.14463,-0.2148 0.22183,-0.4672 0.22183,-0.7255 -4.4e-4,-0.3461 -0.13925,-0.678 -0.38601,-0.9228 -0.24675,-0.2448 -0.5813,-0.3825 -0.93026,-0.3829 z m 0,1.741 c -0.08678,0 -0.17161,-0.0255 -0.24376,-0.0734 -0.07215,-0.0478 -0.12839,-0.1158 -0.1616,-0.1953 -0.03321,-0.0795 -0.0419,-0.167 -0.02497,-0.2515 0.01693,-0.0844 0.05872,-0.162 0.12008,-0.2228 0.06136,-0.0609 0.13954,-0.1023 0.22465,-0.1191 0.08511,-0.0168 0.17333,-0.0082 0.2535,0.0247 0.08018,0.033 0.1487,0.0888 0.19691,0.1603 0.04821,0.0716 0.07395,0.1558 0.07395,0.2418 0,0.1155 -0.04623,0.2262 -0.12851,0.3078 -0.08228,0.0816 -0.19388,0.1275 -0.31025,0.1275 z"
       fill="#5ca3e6"
       id="path8" />
    <path
       d="m 95.009172,20.261177 c -0.2603,0 -0.5148,0.0766 -0.7313,0.2201 -0.2164,0.1434 -0.3851,0.3474 -0.4848,0.586 -0.0996,0.2386 -0.1256,0.5011 -0.0749,0.7544 0.0508,0.2533 0.1762,0.4859 0.3603,0.6685 0.1841,0.1827 0.4186,0.307 0.6739,0.3574 0.2554,0.0504 0.52,0.0245 0.7605,-0.0743 0.2405,-0.0988 0.4461,-0.2662 0.5908,-0.4809 0.1446,-0.2148 0.2218,-0.4672 0.2218,-0.7255 -5e-4,-0.3461 -0.1393,-0.678 -0.386,-0.9228 -0.2468,-0.2448 -0.5813,-0.3825 -0.9303,-0.3829 z m 0,1.741 c -0.0868,0 -0.1716,-0.0255 -0.2437,-0.0734 -0.0722,-0.0478 -0.1284,-0.1158 -0.1616,-0.1953 -0.0333,-0.0795 -0.0419,-0.167 -0.025,-0.2515 0.0169,-0.0844 0.0587,-0.162 0.1201,-0.2228 0.0613,-0.0609 0.1395,-0.1023 0.2246,-0.1191 0.0851,-0.0168 0.1733,-0.0082 0.2535,0.0247 0.0802,0.033 0.1487,0.0888 0.1969,0.1603 0.0482,0.0716 0.074,0.1558 0.074,0.2418 0,0.1155 -0.0463,0.2262 -0.1285,0.3078 -0.0823,0.0816 -0.1939,0.1275 -0.3103,0.1275 z"
       fill="#5ca3e6"
       id="path10" />
  </g>
</svg>
