<?xml version="1.0" encoding="UTF-8" standalone="no"?>
<svg
   width="32"
   height="32"
   viewBox="0 0 32 32"
   fill="none"
   version="1.1"
   id="svg11"
   xmlns="http://www.w3.org/2000/svg"
   xmlns:svg="http://www.w3.org/2000/svg">
  <g
     clip-path="url(#clip0_444_3354)"
     id="g4">
    <path
       d="M26.2546 14.2589C26.0213 14.2589 25.7879 14.2978 25.5676 14.3238L22.8973 11.6664H25.2546C25.8069 11.6664 26.2546 11.2187 26.2546 10.6664V9.39573C26.2546 8.65235 25.4723 8.16885 24.8074 8.5013L21.4325 10.1887L18.005 6.7731C17.8175 6.58632 17.5637 6.48145 17.2991 6.48145H12.9958C12.4436 6.48145 11.9958 6.92916 11.9958 7.48145V8.07395C11.9958 8.62623 12.4436 9.07395 12.9958 9.07395H16.2352C16.5004 9.07395 16.7547 9.1793 16.9423 9.36684L19.2419 11.6664H15.7687C14.9925 11.6664 14.2269 11.8472 13.5326 12.1943L10.048 13.9366C9.66302 14.1291 9.19805 14.0537 8.89369 13.7493L7.39663 12.2522C7.02155 11.8772 6.51285 11.6664 5.98241 11.6664H1.32959C0.777305 11.6664 0.32959 12.1142 0.32959 12.6664V13.2589C0.32959 13.8112 0.777305 14.2589 1.32959 14.2589H5.51459C2.64988 14.2589 0.32959 16.5792 0.32959 19.4439C0.32959 22.3087 2.64988 24.6289 5.51459 24.6289C8.3793 24.6289 10.6996 22.3087 10.6996 19.4439L12.7063 21.4507C13.0814 21.8257 13.5901 22.0364 14.1205 22.0364H16.0209C16.7382 22.0364 17.4006 21.6523 17.7569 21.0296L21.7048 14.1293L23.014 15.4385C21.8344 16.3848 21.0696 17.8236 21.0696 19.4439C21.0696 22.3087 23.3899 24.6289 26.2546 24.6289C29.1193 24.6289 31.4396 22.3087 31.4396 19.4439C31.4396 16.5792 29.1193 14.2589 26.2546 14.2589ZM5.51459 22.0364C4.08871 22.0364 2.92209 20.8698 2.92209 19.4439C2.92209 18.0181 4.08871 16.8514 5.51459 16.8514C6.94046 16.8514 8.10709 18.0181 8.10709 19.4439C8.10709 20.8698 6.94046 22.0364 5.51459 22.0364ZM26.2546 22.0364C24.8287 22.0364 23.6621 20.8698 23.6621 19.4439C23.6621 18.0181 24.8287 16.8514 26.2546 16.8514C27.6805 16.8514 28.8471 18.0181 28.8471 19.4439C28.8471 20.8698 27.6805 22.0364 26.2546 22.0364Z"
       fill="#2A70E2"
       id="path2" />
  </g>
  <defs
     id="defs9">
    <clipPath
       id="clip0_444_3354">
      <rect
         width="31.11"
         height="31.11"
         fill="white"
         transform="translate(0.32959)"
         id="rect6" />
    </clipPath>
  </defs>
</svg>
