<?xml version="1.0" encoding="UTF-8" standalone="no"?>
<svg
   width="30"
   height="19"
   viewBox="0 0 30 19"
   fill="none"
   version="1.1"
   id="svg4"
   xmlns="http://www.w3.org/2000/svg"
   xmlns:svg="http://www.w3.org/2000/svg">
  <defs
     id="defs8" />
  <path
     d="M21.5492 0.774338C21.3617 0.586802 21.1074 0.481445 20.8421 0.481445H3.10886C1.68298 0.481445 0.516357 1.63511 0.516357 3.07395V13.7402C0.516357 14.2925 0.964073 14.7402 1.51636 14.7402H3.10886C3.10886 16.879 4.84583 18.6289 6.99761 18.6289C9.14938 18.6289 10.8864 16.879 10.8864 14.7402H18.0157C18.0157 16.879 19.7527 18.6289 21.9045 18.6289C24.0563 18.6289 25.7932 16.879 25.7932 14.7402H28.0339C28.5861 14.7402 29.0339 14.2925 29.0339 13.7402V9.08737C29.0339 8.55694 28.8231 8.04823 28.4481 7.67316L21.5492 0.774338ZM3.10886 8.25895V3.07395H8.29386V8.25895H3.10886ZM6.99761 16.6846C5.92172 16.6846 5.05323 15.8161 5.05323 14.7402C5.05323 13.6643 5.92172 12.7958 6.99761 12.7958C8.07349 12.7958 8.94198 13.6643 8.94198 14.7402C8.94198 15.8161 8.07349 16.6846 6.99761 16.6846ZM16.0714 8.25895H10.8864V3.07395H16.0714V8.25895ZM21.9045 16.6846C20.8286 16.6846 19.9601 15.8161 19.9601 14.7402C19.9601 13.6643 20.8286 12.7958 21.9045 12.7958C22.9804 12.7958 23.8489 13.6643 23.8489 14.7402C23.8489 15.8161 22.9804 16.6846 21.9045 16.6846ZM18.6639 8.25895V3.07395H19.9601L25.1451 8.25895H18.6639Z"
     fill="#2A70E2"
     id="path2" />
</svg>
