<?xml version="1.0" encoding="UTF-8" standalone="no"?>
<svg
   width="25"
   height="22"
   viewBox="0 0 25 22"
   fill="none"
   version="1.1"
   id="svg4"
   xmlns="http://www.w3.org/2000/svg"
   xmlns:svg="http://www.w3.org/2000/svg">
  <defs
     id="defs8" />
  <path
     d="M21.525 1.79066C21.2657 1.02587 20.5398 0.481445 19.6843 0.481445H5.42555C4.57002 0.481445 3.85708 1.02587 3.58487 1.79066L0.888672 9.5552V19.9252C0.888672 20.6381 1.47198 21.2214 2.18492 21.2214H3.48117C4.19411 21.2214 4.77742 20.6381 4.77742 19.9252V18.6289H20.3324V19.9252C20.3324 20.6381 20.9157 21.2214 21.6287 21.2214H22.9249C23.6379 21.2214 24.2212 20.6381 24.2212 19.9252V9.5552L21.525 1.79066ZM6.7218 14.7402C5.64591 14.7402 4.77742 13.8717 4.77742 12.7958C4.77742 11.7199 5.64591 10.8514 6.7218 10.8514C7.79768 10.8514 8.66617 11.7199 8.66617 12.7958C8.66617 13.8717 7.79768 14.7402 6.7218 14.7402ZM18.388 14.7402C17.3122 14.7402 16.4437 13.8717 16.4437 12.7958C16.4437 11.7199 17.3122 10.8514 18.388 10.8514C19.4639 10.8514 20.3324 11.7199 20.3324 12.7958C20.3324 13.8717 19.4639 14.7402 18.388 14.7402ZM4.53113 6.9627L5.87923 3.07395H19.2176L20.5657 6.9627H4.53113Z"
     fill="#2A70E2"
     id="path2" />
</svg>
