<svg width="48" height="47" viewBox="0 0 48 47" fill="none" xmlns="http://www.w3.org/2000/svg">
<path d="M10.9267 24.9861V26.9679C10.9267 27.7937 11.5911 28.5369 12.5046 28.5369C13.335 28.5369 14.0825 27.8762 14.0825 26.9679V25.7293H26.2072V26.9679C26.2072 27.7937 26.8716 28.5369 27.7851 28.5369C28.6986 28.5369 29.363 27.8762 29.363 26.9679V25.3164C31.5222 24.408 32.9339 22.1785 32.9339 19.7012C32.9339 18.5451 32.6017 17.4716 32.1035 16.4807C32.6848 16.233 33.1 15.7375 33.1 15.0769C33.1 14.2511 32.4357 13.508 31.5222 13.508H30.1934C28.8647 11.1958 26.1242 9.04883 20.477 9.04883C14.8299 9.04883 12.0894 11.1958 10.7606 13.508H9.43188C8.60142 13.508 7.854 14.1686 7.854 15.0769C7.854 15.7375 8.26924 16.3155 8.85056 16.4807C8.26924 17.389 8.0201 18.5451 8.0201 19.7012C7.93705 21.8482 9.18274 23.9126 10.9267 24.9861ZM20.394 12.0216C24.6293 12.0216 27.1207 13.4254 27.8681 16.1504L28.0342 16.7284L28.5325 17.0587C29.363 17.6368 29.7782 18.5451 29.7782 19.6186C29.7782 21.1876 28.7816 22.4262 27.4529 22.5914C27.3698 22.5914 27.2868 22.5914 27.2038 22.5914H13.6672C13.5842 22.5914 13.5011 22.5914 13.4181 22.5914C12.0894 22.4262 11.0928 21.1876 11.0928 19.6186C11.0928 18.7103 11.508 17.8845 12.0894 17.3065C12.2554 17.389 12.4215 17.389 12.5876 17.389H24.4632C25.2937 17.389 26.0411 16.7284 26.0411 15.8201C26.0411 14.9118 25.3767 14.2511 24.4632 14.2511H13.9164C15.1621 12.7648 17.3213 12.0216 20.394 12.0216Z" fill="#1D8BF1"/>
<path d="M15.6606 19.1237C15.5775 19.0411 15.5775 18.9586 15.4945 18.876C15.4114 18.7934 15.4114 18.7108 15.3284 18.6283C14.9962 18.298 14.4149 18.1328 13.9166 18.2154C13.8335 18.2154 13.7505 18.298 13.5844 18.298C13.5014 18.298 13.4183 18.3805 13.3353 18.4631C13.2522 18.5457 13.1692 18.6283 13.0861 18.6283C13.0031 18.7108 12.92 18.7934 12.92 18.876C12.837 18.9586 12.837 19.0411 12.7539 19.1237C12.7539 19.2063 12.6709 19.2889 12.6709 19.3714C12.6709 19.454 12.6709 19.5366 12.6709 19.7018C12.6709 20.1146 12.837 20.5275 13.1692 20.7752C13.2522 20.8578 13.3353 20.9404 13.4183 20.9404C13.5014 21.023 13.5844 21.023 13.6675 21.1056C13.7505 21.1056 13.8335 21.1881 13.9996 21.1881C14.0827 21.1881 14.1657 21.1881 14.3318 21.1881C14.4149 21.1881 14.4979 21.1881 14.664 21.1881C14.7471 21.1881 14.8301 21.1056 14.9962 21.1056C15.0792 21.1056 15.1623 21.023 15.2453 20.9404C15.3284 20.8578 15.4114 20.8578 15.4945 20.7752C15.8267 20.4449 15.9097 20.1146 15.9097 19.7018C15.9097 19.6192 15.9097 19.5366 15.9097 19.3714C15.6606 19.3714 15.6606 19.2063 15.6606 19.1237Z" fill="#1D8BF1"/>
<path d="M25.6252 18.6283C25.5421 18.7108 25.4591 18.7934 25.4591 18.876C25.3761 18.9586 25.3761 19.0411 25.293 19.1237C25.293 19.2063 25.21 19.2889 25.21 19.3714C25.21 19.454 25.21 19.5366 25.21 19.7018C25.21 20.1146 25.3761 20.5275 25.7082 20.7752C25.7913 20.8578 25.8743 20.9404 25.9574 20.9404C26.0404 21.023 26.1235 21.023 26.2065 21.1056C26.2896 21.1056 26.3726 21.1881 26.5387 21.1881C26.6217 21.1881 26.7048 21.1881 26.8709 21.1881C27.037 21.1881 27.037 21.1881 27.2031 21.1881C27.2861 21.1881 27.3692 21.1056 27.5353 21.1056C27.6183 21.1056 27.7013 21.023 27.7844 20.9404C27.8674 20.8578 27.9505 20.8578 28.0335 20.7752C28.3657 20.4449 28.4488 20.1146 28.4488 19.7018C28.4488 19.6192 28.4488 19.5366 28.4488 19.3714C28.4488 19.2889 28.3657 19.2063 28.3657 19.1237C28.3657 19.0411 28.2827 18.9586 28.1996 18.876C28.1166 18.7934 28.1166 18.7108 28.0335 18.6283C27.7013 18.298 27.12 18.1328 26.6217 18.2154C26.5387 18.2154 26.4557 18.298 26.2896 18.298C26.2065 18.298 26.1235 18.3805 26.0404 18.4631C25.7082 18.5457 25.6252 18.5457 25.6252 18.6283Z" fill="#1D8BF1"/>
<path d="M20.1451 38.5278C24.7126 38.5278 29.1141 36.8763 32.602 33.9861L36.256 37.6194C36.0069 38.1975 35.8408 38.7755 35.8408 39.4361C35.8408 40.5922 36.256 41.6657 37.0865 42.4915L39.6609 45.0513C40.4914 45.8771 41.571 46.29 42.7336 46.29C43.8963 46.29 44.9759 45.8771 45.8063 45.0513C46.6368 44.2256 47.052 43.1521 47.052 41.996C47.052 40.8399 46.6368 39.7664 45.8063 38.9407L43.2319 36.3808C42.4014 35.555 41.3218 35.1422 40.1592 35.1422C39.5779 35.1422 38.9965 35.3073 38.4152 35.4725L34.7612 31.7565C37.7509 28.2883 39.3287 23.9943 39.3287 19.3701C39.3287 14.2503 37.3356 9.4609 33.6816 5.91012C30.0276 2.27676 25.2109 0.294922 20.1451 0.294922C15.0793 0.294922 10.1795 2.27676 6.60856 5.91012C2.95453 9.54348 0.961426 14.3329 0.961426 19.3701C0.961426 24.4898 2.95453 29.2792 6.60856 32.83C10.1795 36.4634 14.9962 38.5278 20.1451 38.5278ZM41.0727 38.5278L43.6471 41.0877C43.8963 41.3354 43.9793 41.5831 43.9793 41.9134C43.9793 42.2437 43.8132 42.574 43.6471 42.7392C43.2319 43.1521 42.4014 43.1521 41.9032 42.7392L39.3287 40.1793C39.0796 39.9316 38.9965 39.6839 38.9965 39.3536C38.9965 39.0232 39.1626 38.6929 39.3287 38.5278C39.5779 38.2801 39.827 38.1975 40.1592 38.1975C40.4914 38.1975 40.8236 38.2801 41.0727 38.5278ZM8.76776 8.0571C11.8405 5.00178 15.8267 3.35025 20.1451 3.35025C24.4635 3.35025 28.4497 5.00178 31.5224 8.0571C34.5951 11.1124 36.256 15.1587 36.256 19.3701C36.256 23.5815 34.5951 27.6277 31.5224 30.683C28.4497 33.7384 24.4635 35.3899 20.1451 35.3899C15.8267 35.3899 11.8405 33.7384 8.76776 30.683C5.69505 27.6277 4.03413 23.664 4.03413 19.3701C4.03413 15.1587 5.7781 11.1124 8.76776 8.0571Z" fill="#1D8BF1"/>
</svg>
