<svg width="32" height="32" viewBox="0 0 32 32" fill="none" xmlns="http://www.w3.org/2000/svg">
<rect x="0.219178" y="0.219178" width="31.5616" height="31.5616" rx="4.16438" fill="#C7E4FF" stroke="#A1D2FF" stroke-width="0.438356"/>
<rect x="0.219178" y="0.219178" width="31.5616" height="31.5616" rx="4.16438" fill="#E6C7FF" stroke="#B9A1FF" stroke-width="0.438356"/>
<path d="M15.4333 16.2871C15.6577 16.3687 15.8821 16.4095 16.1269 16.4095C16.3513 16.4095 16.5961 16.3687 16.8205 16.2871L16.4125 16.9195L17.0654 20.9999L16.1269 21.6119L15.1883 20.9999L15.8413 16.9195L15.4333 16.2871Z" fill="#8D43C6"/>
<path d="M15.0047 16.2053L15.5352 17.0213L15.0047 20.2857C13.1075 20.0204 11.7609 19.2247 11.7609 18.3679C11.7609 17.4498 13.1687 16.5318 15.0047 16.2053Z" fill="#8D43C6"/>
<path d="M17.2488 16.2053C19.2482 16.5521 20.4927 17.5519 20.4927 18.3475C20.4927 19.2044 19.1461 20 17.2488 20.2653L16.7184 17.001L17.2488 16.2053Z" fill="#8D43C6"/>
<path d="M16.127 16.1237C14.9029 16.1237 13.7809 14.6344 13.7809 13.0022C13.7809 11.4517 14.8214 10.1868 16.127 10.1868C17.4327 10.1868 18.4731 11.4516 18.4731 13.0022C18.4731 14.6344 17.3512 16.1237 16.127 16.1237Z" fill="#8D43C6"/>
<path d="M6.17082 17.1031V14.6958L8.41508 14.4917C8.61916 13.3696 9.06801 12.3292 9.67995 11.4314L8.25187 9.69723L9.94521 8.00389L11.6794 9.43197C12.5771 8.79956 13.6175 8.37105 14.7397 8.16711L14.9437 5.92285L17.3306 5.92299L17.5347 8.16725C18.6568 8.37133 19.6972 8.82018 20.5949 9.43212L22.3291 8.00404L24.0225 9.69737L22.5944 11.4316C23.2268 12.3293 23.6553 13.3697 23.8593 14.4918L26.1035 14.6959V17.1032L23.8593 17.3073C23.6552 18.4294 23.2063 19.4699 22.5944 20.3676L24.0225 22.1018L22.3291 23.7951L20.5949 22.367C19.6972 22.9995 18.6568 23.428 17.5347 23.6319L17.3306 25.8762H14.9233L14.7192 23.6319C13.5971 23.4278 12.5567 22.979 11.6589 22.367L9.92473 23.7951L8.23139 22.1018L9.65947 20.3676C9.02706 19.4699 8.59855 18.4294 8.39461 17.3073L6.17082 17.1031ZM9.72075 15.8994C9.72075 19.4289 12.5974 22.3056 16.1269 22.3056C19.6563 22.3056 22.533 19.4289 22.533 15.8994C22.533 12.37 19.6563 9.49331 16.1269 9.49331C12.5974 9.49331 9.72075 12.37 9.72075 15.8994Z" fill="#8D43C6"/>
</svg>
